<svg xmlns="http://www.w3.org/2000/svg" xmlns:xlink="http://www.w3.org/1999/xlink" viewBox="0 0 163.54 39.81"><defs><style>.cls-1{fill:none;}.cls-2{fill:#1e631f;}.cls-3{fill:#110c0f;opacity:0.28;isolation:isolate;}.cls-4{fill:url(#linear-gradient);}.cls-5{fill:url(#linear-gradient-2);}.cls-6{fill:url(#linear-gradient-3);}.cls-7{fill:url(#linear-gradient-4);}.cls-8{fill:url(#linear-gradient-5);}.cls-9{fill:url(#radial-gradient);}.cls-10{fill:url(#radial-gradient-2);}.cls-11{fill:url(#radial-gradient-3);}.cls-12{fill:url(#radial-gradient-4);}.cls-13{fill:url(#radial-gradient-5);}.cls-14{fill:url(#radial-gradient-6);}.cls-15{fill:url(#radial-gradient-7);}.cls-16{fill:url(#radial-gradient-8);}.cls-17{fill:url(#radial-gradient-9);}.cls-18{fill:url(#linear-gradient-6);}.cls-19{fill:url(#linear-gradient-7);}.cls-20{fill:url(#linear-gradient-8);}.cls-21{fill:url(#linear-gradient-9);}.cls-22{fill:url(#linear-gradient-10);}.cls-23{fill:url(#linear-gradient-11);}.cls-24{fill:url(#linear-gradient-12);}.cls-25{fill:url(#linear-gradient-13);}.cls-26{fill:url(#linear-gradient-14);}.cls-27{fill:url(#linear-gradient-15);}.cls-28{fill:url(#linear-gradient-16);}.cls-29{fill:url(#linear-gradient-17);}.cls-30{fill:url(#linear-gradient-18);}.cls-31{fill:url(#linear-gradient-19);}.cls-32{fill:url(#linear-gradient-20);}.cls-33{fill:url(#linear-gradient-21);}.cls-34{fill:url(#radial-gradient-10);}.cls-35{fill:url(#radial-gradient-11);}.cls-36{fill:url(#radial-gradient-12);}.cls-37{fill:url(#radial-gradient-13);}.cls-38{fill:url(#radial-gradient-14);}.cls-39{fill:url(#radial-gradient-15);}.cls-40{fill:url(#radial-gradient-16);}.cls-41{fill:url(#radial-gradient-17);}.cls-42{fill:url(#radial-gradient-18);}.cls-43{fill:url(#linear-gradient-22);}.cls-44{fill:url(#linear-gradient-23);}.cls-45{fill:url(#linear-gradient-24);}.cls-46{fill:url(#linear-gradient-25);}.cls-47{fill:url(#linear-gradient-26);}.cls-48{fill:url(#linear-gradient-27);}.cls-49{fill:url(#linear-gradient-28);}.cls-50{fill:url(#linear-gradient-29);}.cls-51{fill:url(#linear-gradient-30);}.cls-52{fill:url(#linear-gradient-31);}.cls-53{fill:url(#linear-gradient-32);}.cls-54{fill:url(#linear-gradient-33);}.cls-55{fill:url(#linear-gradient-34);}.cls-56{fill:url(#linear-gradient-35);}.cls-57{fill:url(#linear-gradient-36);}.cls-58{fill:url(#linear-gradient-37);}.cls-59{fill:url(#radial-gradient-19);}.cls-60{fill:url(#radial-gradient-20);}.cls-61{fill:url(#radial-gradient-21);}.cls-62{fill:url(#radial-gradient-22);}.cls-63{fill:url(#radial-gradient-23);}.cls-64{fill:url(#radial-gradient-24);}.cls-65{fill:url(#radial-gradient-25);}.cls-66{fill:url(#radial-gradient-26);}.cls-67{fill:url(#radial-gradient-27);}.cls-68{fill:url(#linear-gradient-38);}.cls-69{fill:url(#linear-gradient-39);}.cls-70{fill:url(#linear-gradient-40);}.cls-71{fill:url(#linear-gradient-41);}.cls-72{fill:url(#linear-gradient-42);}.cls-73{fill:url(#linear-gradient-43);}.cls-74{fill:url(#linear-gradient-44);}.cls-75{fill:url(#linear-gradient-45);}.cls-76{fill:url(#linear-gradient-46);}.cls-77{fill:url(#linear-gradient-47);}.cls-78{fill:url(#linear-gradient-48);}.cls-79{fill:url(#linear-gradient-49);}.cls-80{fill:url(#linear-gradient-50);}.cls-81{fill:url(#linear-gradient-51);}.cls-82{fill:url(#linear-gradient-52);}.cls-83{fill:url(#linear-gradient-53);}.cls-84{fill:url(#radial-gradient-28);}.cls-85{fill:url(#radial-gradient-29);}.cls-86{fill:url(#radial-gradient-30);}.cls-87{fill:url(#radial-gradient-31);}.cls-88{fill:url(#radial-gradient-32);}.cls-89{fill:url(#radial-gradient-33);}.cls-90{fill:url(#radial-gradient-34);}.cls-91{fill:url(#radial-gradient-35);}.cls-92{fill:url(#radial-gradient-36);}.cls-93{fill:url(#linear-gradient-54);}.cls-94{fill:url(#linear-gradient-55);}.cls-95{fill:url(#linear-gradient-56);}.cls-96{fill:url(#linear-gradient-57);}.cls-97{fill:url(#linear-gradient-58);}.cls-98{fill:url(#linear-gradient-59);}.cls-99{fill:url(#linear-gradient-60);}.cls-100{fill:url(#linear-gradient-61);}.cls-101{fill:url(#linear-gradient-62);}.cls-102{fill:url(#linear-gradient-63);}.cls-103{fill:url(#linear-gradient-64);}.cls-104{fill:url(#linear-gradient-65);}.cls-105{fill:url(#linear-gradient-66);}.cls-106{fill:url(#linear-gradient-67);}.cls-107{fill:url(#linear-gradient-68);}.cls-108{fill:url(#linear-gradient-69);}.cls-109{fill:url(#radial-gradient-37);}.cls-110{fill:url(#radial-gradient-38);}.cls-111{fill:url(#radial-gradient-39);}.cls-112{fill:url(#radial-gradient-40);}.cls-113{fill:url(#radial-gradient-41);}.cls-114{fill:url(#radial-gradient-42);}.cls-115{fill:url(#radial-gradient-43);}.cls-116{fill:url(#radial-gradient-44);}.cls-117{fill:url(#radial-gradient-45);}.cls-118{fill:url(#linear-gradient-70);}.cls-119{fill:url(#linear-gradient-71);}.cls-120{fill:url(#linear-gradient-72);}.cls-121{fill:url(#linear-gradient-73);}.cls-122{fill:url(#linear-gradient-74);}.cls-123{fill:url(#linear-gradient-75);}.cls-124{fill:url(#linear-gradient-76);}.cls-125{fill:url(#linear-gradient-77);}.cls-126{fill:url(#linear-gradient-78);}.cls-127{fill:url(#linear-gradient-79);}.cls-128{fill:url(#linear-gradient-80);}.cls-129{fill:url(#linear-gradient-81);}.cls-130{fill:url(#linear-gradient-82);}.cls-131{fill:url(#linear-gradient-83);}.cls-132{fill:url(#linear-gradient-84);}.cls-133{fill:url(#linear-gradient-85);}.cls-134{fill:url(#radial-gradient-46);}.cls-135{fill:url(#radial-gradient-47);}.cls-136{fill:url(#radial-gradient-48);}.cls-137{fill:url(#radial-gradient-49);}.cls-138{fill:url(#radial-gradient-50);}.cls-139{fill:url(#radial-gradient-51);}.cls-140{fill:url(#radial-gradient-52);}.cls-141{fill:url(#radial-gradient-53);}.cls-142{fill:url(#radial-gradient-54);}.cls-143{fill:url(#linear-gradient-86);}.cls-144{fill:url(#linear-gradient-87);}.cls-145{fill:url(#linear-gradient-88);}.cls-146{fill:url(#linear-gradient-89);}.cls-147{fill:url(#linear-gradient-90);}.cls-148{fill:url(#linear-gradient-91);}.cls-149{fill:url(#linear-gradient-92);}.cls-150{fill:url(#linear-gradient-93);}.cls-151{fill:url(#linear-gradient-94);}.cls-152{fill:url(#linear-gradient-95);}.cls-153{fill:url(#linear-gradient-96);}.cls-154{fill:url(#linear-gradient-97);}.cls-155{fill:url(#linear-gradient-98);}.cls-156{fill:url(#linear-gradient-99);}.cls-157{fill:url(#linear-gradient-100);}.cls-158{fill:url(#linear-gradient-101);}.cls-159{fill:url(#radial-gradient-55);}.cls-160{fill:url(#radial-gradient-56);}.cls-161{fill:url(#radial-gradient-57);}.cls-162{fill:url(#radial-gradient-58);}.cls-163{fill:url(#radial-gradient-59);}.cls-164{fill:url(#radial-gradient-60);}.cls-165{fill:url(#radial-gradient-61);}.cls-166{fill:url(#radial-gradient-62);}.cls-167{fill:url(#radial-gradient-63);}.cls-168{fill:url(#linear-gradient-102);}.cls-169{fill:url(#linear-gradient-103);}.cls-170{fill:url(#linear-gradient-104);}.cls-171{fill:url(#linear-gradient-105);}.cls-172{fill:url(#linear-gradient-106);}.cls-173{fill:url(#linear-gradient-107);}.cls-174{fill:url(#linear-gradient-108);}.cls-175{fill:url(#linear-gradient-109);}.cls-176{fill:url(#linear-gradient-110);}.cls-177{fill:url(#linear-gradient-111);}.cls-178{fill:url(#linear-gradient-112);}.cls-179{fill:#d1cec7;}.cls-179,.cls-180,.cls-181,.cls-182,.cls-183,.cls-184,.cls-185,.cls-186,.cls-187,.cls-189,.cls-192{fill-rule:evenodd;}.cls-180{fill:#6d6446;}.cls-181{fill:#fffeee;}.cls-182{fill:#846b69;}.cls-183{fill:#d9d697;}.cls-184{fill:#bfbb83;}.cls-185{fill:#a39c6c;}.cls-186{fill:#f0e8e5;}.cls-187{fill:#ecebe7;}.cls-188{opacity:0.3;}.cls-189,.cls-190{fill:#ddc67b;}.cls-191{opacity:0.1;}.cls-192,.cls-193{fill:#162f4f;}.cls-194{fill:#f20900;}.cls-195{fill:url(#linear-gradient-113);}.cls-196{fill:#ed9306;}.cls-197{fill:url(#linear-gradient-114);}.cls-198{fill:url(#linear-gradient-115);}.cls-199{fill:url(#linear-gradient-116);}.cls-200{fill:url(#linear-gradient-117);}.cls-201{fill:url(#linear-gradient-118);}.cls-202{fill:url(#radial-gradient-64);}.cls-203{fill:url(#radial-gradient-65);}.cls-204{fill:url(#radial-gradient-66);}.cls-205{fill:url(#radial-gradient-67);}.cls-206{fill:url(#radial-gradient-68);}.cls-207{fill:url(#radial-gradient-69);}.cls-208{fill:url(#radial-gradient-70);}.cls-209{fill:url(#radial-gradient-71);}.cls-210{fill:url(#radial-gradient-72);}.cls-211{fill:url(#linear-gradient-119);}.cls-212{fill:url(#linear-gradient-120);}.cls-213{fill:url(#linear-gradient-121);}.cls-214{fill:url(#linear-gradient-122);}.cls-215{fill:url(#linear-gradient-123);}.cls-216{fill:url(#linear-gradient-124);}.cls-217{fill:url(#linear-gradient-125);}.cls-218{fill:url(#linear-gradient-126);}.cls-219{fill:url(#linear-gradient-127);}.cls-220{fill:url(#linear-gradient-128);}.cls-221{fill:url(#linear-gradient-129);}.cls-222{fill:#fff;}</style><linearGradient id="linear-gradient" x1="-67.99" y1="-46.43" x2="-73.69" y2="-46.43" gradientTransform="matrix(0.85, -0.53, -0.53, -0.85, 38.61, -70.82)" gradientUnits="userSpaceOnUse"><stop offset="0" stop-color="#fcfc9d"/><stop offset="1" stop-color="#fce360"/></linearGradient><linearGradient id="linear-gradient-2" x1="-67.46" y1="-46.01" x2="-71.98" y2="-46.01" gradientTransform="matrix(1, 0, 0, -1, 71.98, -40.41)" gradientUnits="userSpaceOnUse"><stop offset="0.01" stop-color="#e9a804"/><stop offset="0.56" stop-color="#dd6403"/><stop offset="1" stop-color="#a53303"/></linearGradient><linearGradient id="linear-gradient-3" x1="-73.42" y1="-54.2" x2="-67.91" y2="-54.2" gradientTransform="matrix(0.85, -0.53, -0.53, -0.85, 38.61, -70.82)" gradientUnits="userSpaceOnUse"><stop offset="0.01" stop-color="#fdce16"/><stop offset="0.16" stop-color="#fbe62f"/><stop offset="0.25" stop-color="#fbe62f"/><stop offset="0.31" stop-color="#fbe62f"/><stop offset="0.48" stop-color="#edc904"/><stop offset="0.79" stop-color="#fa9e01"/><stop offset="0.93" stop-color="#fa9e01"/><stop offset="1" stop-color="#fdce16"/></linearGradient><linearGradient id="linear-gradient-4" x1="-72.33" y1="-62.92" x2="-66.82" y2="-62.92" gradientTransform="matrix(1, 0, 0, -1, 80.97, -42.77)" xlink:href="#linear-gradient-3"/><linearGradient id="linear-gradient-5" x1="-69.54" y1="-46.33" x2="-73" y2="-45.31" gradientTransform="matrix(0.85, -0.53, -0.53, -0.85, 38.61, -70.82)" gradientUnits="userSpaceOnUse"><stop offset="0.01" stop-color="#e58e03"/><stop offset="0.56" stop-color="#c24503"/><stop offset="1" stop-color="#872102"/></linearGradient><radialGradient id="radial-gradient" cx="-100.49" cy="-210.52" r="1.52" gradientTransform="matrix(0.6, -0.37, -0.37, -0.6, -16.4, -154.51)" gradientUnits="userSpaceOnUse"><stop offset="0" stop-color="#fdf99b"/><stop offset="1" stop-color="#fce015"/></radialGradient><radialGradient id="radial-gradient-2" cx="133.38" cy="31.08" r="3.08" gradientTransform="matrix(1, 0, 0, -1, 0, 42.39)" xlink:href="#radial-gradient"/><radialGradient id="radial-gradient-3" cx="134.32" cy="29.12" r="4.65" gradientTransform="matrix(1, 0, 0, -1, 0, 42.39)" xlink:href="#radial-gradient"/><radialGradient id="radial-gradient-4" cx="135.31" cy="27.45" r="6.28" gradientTransform="matrix(1, 0, 0, -1, 0, 42.39)" xlink:href="#radial-gradient"/><radialGradient id="radial-gradient-5" cx="135.67" cy="23.79" r="6.45" gradientTransform="matrix(1, 0, 0, -1, 0, 42.39)" xlink:href="#radial-gradient"/><radialGradient id="radial-gradient-6" cx="135.67" cy="19.52" r="5.78" gradientTransform="matrix(1, 0, 0, -1, 0, 42.39)" xlink:href="#radial-gradient"/><radialGradient id="radial-gradient-7" cx="-96.83" cy="-227.2" r="4.5" gradientTransform="matrix(0.6, -0.37, -0.37, -0.6, -16.4, -154.51)" gradientUnits="userSpaceOnUse"><stop offset="0" stop-color="#fbf268"/><stop offset="1" stop-color="#fce015"/></radialGradient><radialGradient id="radial-gradient-8" cx="-95.74" cy="-229.39" r="2.89" gradientTransform="matrix(0.6, -0.37, -0.37, -0.6, -16.4, -154.51)" gradientUnits="userSpaceOnUse"><stop offset="0" stop-color="#fbee4c"/><stop offset="1" stop-color="#fce015"/></radialGradient><radialGradient id="radial-gradient-9" cx="-94.5" cy="-231.27" r="1.24" gradientTransform="matrix(0.6, -0.37, -0.37, -0.6, -16.4, -154.51)" gradientUnits="userSpaceOnUse"><stop offset="0" stop-color="#fbea36"/><stop offset="1" stop-color="#fce015"/></radialGradient><linearGradient id="linear-gradient-6" x1="-73.16" y1="-62.47" x2="-67.91" y2="-62.47" gradientTransform="matrix(0.85, -0.53, -0.53, -0.85, 38.61, -70.82)" gradientUnits="userSpaceOnUse"><stop offset="0.01" stop-color="#faa501"/><stop offset="0.14" stop-color="#fbc20c"/><stop offset="0.22" stop-color="#fbc20c"/><stop offset="0.37" stop-color="#e9a804"/><stop offset="0.67" stop-color="#df8204"/><stop offset="0.88" stop-color="#df8204"/><stop offset="1" stop-color="#faa501"/></linearGradient><linearGradient id="linear-gradient-7" x1="-73.48" y1="-61.14" x2="-67.91" y2="-61.14" xlink:href="#linear-gradient-6"/><linearGradient id="linear-gradient-8" x1="-73.49" y1="-59.57" x2="-67.91" y2="-59.57" xlink:href="#linear-gradient-6"/><linearGradient id="linear-gradient-9" x1="-73.47" y1="-57.67" x2="-67.91" y2="-57.67" xlink:href="#linear-gradient-6"/><linearGradient id="linear-gradient-10" x1="-73.47" y1="-54.74" x2="-67.91" y2="-54.74" xlink:href="#linear-gradient-6"/><linearGradient id="linear-gradient-11" x1="-73.47" y1="-52.01" x2="-67.91" y2="-52.01" xlink:href="#linear-gradient-6"/><linearGradient id="linear-gradient-12" x1="-73.48" y1="-51.06" x2="-68.41" y2="-51.06" xlink:href="#linear-gradient-6"/><linearGradient id="linear-gradient-13" x1="-73.47" y1="-49.66" x2="-68.8" y2="-49.66" xlink:href="#linear-gradient-6"/><linearGradient id="linear-gradient-14" x1="-73.47" y1="-48.12" x2="-69.35" y2="-48.12" xlink:href="#linear-gradient-6"/><linearGradient id="linear-gradient-15" x1="-73.47" y1="-46.14" x2="-70.88" y2="-46.14" xlink:href="#linear-gradient-6"/><linearGradient id="linear-gradient-16" x1="-70.79" y1="-46.13" x2="-73.04" y2="-45.47" gradientTransform="matrix(0.85, -0.53, -0.53, -0.85, 38.61, -70.82)" gradientUnits="userSpaceOnUse"><stop offset="0.01" stop-color="#db6503"/><stop offset="0.56" stop-color="#932302"/><stop offset="1" stop-color="#5c1406"/></linearGradient><linearGradient id="linear-gradient-17" x1="139.3" y1="74.31" x2="133.6" y2="74.31" gradientTransform="matrix(1, 0.05, 0.05, -1, -128.95, 74.79)" xlink:href="#linear-gradient"/><linearGradient id="linear-gradient-18" x1="138.74" y1="75.03" x2="134.22" y2="75.03" gradientTransform="matrix(0, 1, 1, 0, -63.98, -129.95)" xlink:href="#linear-gradient-2"/><linearGradient id="linear-gradient-19" x1="133.87" y1="66.39" x2="139.38" y2="66.39" gradientTransform="matrix(1, 0.05, 0.05, -1, -128.95, 74.79)" xlink:href="#linear-gradient-3"/><linearGradient id="linear-gradient-20" x1="133.87" y1="57.99" x2="139.38" y2="57.99" gradientTransform="matrix(0, 1, 1, 0, -47.69, -113.02)" xlink:href="#linear-gradient-3"/><linearGradient id="linear-gradient-21" x1="137.91" y1="74.39" x2="134.45" y2="75.4" gradientTransform="matrix(1, 0.05, 0.05, -1, -128.95, 74.79)" xlink:href="#linear-gradient-5"/><radialGradient id="radial-gradient-10" cx="198.63" cy="-75.79" r="1.52" gradientTransform="matrix(0.71, 0.03, 0.03, -0.71, -129.84, -51.71)" xlink:href="#radial-gradient"/><radialGradient id="radial-gradient-11" cx="199.53" cy="-78.05" r="3.08" gradientTransform="matrix(0.71, 0.03, 0.03, -0.71, -129.84, -51.71)" xlink:href="#radial-gradient"/><radialGradient id="radial-gradient-12" cx="200.47" cy="-80.02" r="4.65" gradientTransform="matrix(0.71, 0.03, 0.03, -0.71, -129.84, -51.71)" xlink:href="#radial-gradient"/><radialGradient id="radial-gradient-13" cx="201.46" cy="-81.69" r="6.28" gradientTransform="matrix(0.71, 0.03, 0.03, -0.71, -129.84, -51.71)" xlink:href="#radial-gradient"/><radialGradient id="radial-gradient-14" cx="201.82" cy="-85.35" r="6.45" gradientTransform="matrix(0.71, 0.03, 0.03, -0.71, -129.84, -51.71)" xlink:href="#radial-gradient"/><radialGradient id="radial-gradient-15" cx="201.82" cy="-89.62" r="5.78" gradientTransform="matrix(0.71, 0.03, 0.03, -0.71, -129.84, -51.71)" xlink:href="#radial-gradient"/><radialGradient id="radial-gradient-16" cx="202.28" cy="-92.48" r="4.5" gradientTransform="matrix(0.71, 0.03, 0.03, -0.71, -129.84, -51.71)" xlink:href="#radial-gradient-7"/><radialGradient id="radial-gradient-17" cx="203.38" cy="-94.67" r="2.89" gradientTransform="matrix(0.71, 0.03, 0.03, -0.71, -129.84, -51.71)" xlink:href="#radial-gradient-8"/><radialGradient id="radial-gradient-18" cx="204.61" cy="-96.55" r="1.24" gradientTransform="matrix(0.71, 0.03, 0.03, -0.71, -129.84, -51.71)" xlink:href="#radial-gradient-9"/><linearGradient id="linear-gradient-22" x1="134.14" y1="58.3" x2="139.38" y2="58.3" gradientTransform="matrix(1, 0.05, 0.05, -1, -128.95, 74.79)" xlink:href="#linear-gradient-6"/><linearGradient id="linear-gradient-23" x1="133.8" y1="59.6" x2="139.38" y2="59.6" gradientTransform="matrix(1, 0.05, 0.05, -1, -128.95, 74.79)" xlink:href="#linear-gradient-6"/><linearGradient id="linear-gradient-24" x1="133.8" y1="61.02" x2="139.38" y2="61.02" gradientTransform="matrix(1, 0.05, 0.05, -1, -128.95, 74.79)" xlink:href="#linear-gradient-6"/><linearGradient id="linear-gradient-25" x1="133.82" y1="62.89" x2="139.38" y2="62.89" gradientTransform="matrix(1, 0.05, 0.05, -1, -128.95, 74.79)" xlink:href="#linear-gradient-6"/><linearGradient id="linear-gradient-26" x1="133.82" y1="65.95" x2="139.38" y2="65.95" gradientTransform="matrix(1, 0.05, 0.05, -1, -128.95, 74.79)" xlink:href="#linear-gradient-6"/><linearGradient id="linear-gradient-27" x1="133.82" y1="68.7" x2="139.38" y2="68.7" gradientTransform="matrix(1, 0.05, 0.05, -1, -128.95, 74.79)" xlink:href="#linear-gradient-6"/><linearGradient id="linear-gradient-28" x1="133.82" y1="69.66" x2="138.88" y2="69.66" gradientTransform="matrix(1, 0.05, 0.05, -1, -128.95, 74.79)" xlink:href="#linear-gradient-6"/><linearGradient id="linear-gradient-29" x1="133.82" y1="70.79" x2="138.49" y2="70.79" gradientTransform="matrix(1, 0.05, 0.05, -1, -128.95, 74.79)" xlink:href="#linear-gradient-6"/><linearGradient id="linear-gradient-30" x1="133.82" y1="72.45" x2="137.94" y2="72.45" gradientTransform="matrix(1, 0.05, 0.05, -1, -128.95, 74.79)" xlink:href="#linear-gradient-6"/><linearGradient id="linear-gradient-31" x1="133.82" y1="74.52" x2="136.39" y2="74.52" gradientTransform="matrix(1, 0.05, 0.05, -1, -128.95, 74.79)" xlink:href="#linear-gradient-6"/><linearGradient id="linear-gradient-32" x1="136.66" y1="74.55" x2="134.42" y2="75.21" gradientTransform="matrix(1, 0.05, 0.05, -1, -128.95, 74.79)" xlink:href="#linear-gradient-16"/><linearGradient id="linear-gradient-33" x1="175.06" y1="118.29" x2="169.36" y2="118.29" gradientTransform="matrix(0.98, 0.18, 0.18, -0.98, -172.72, 89.83)" xlink:href="#linear-gradient"/><linearGradient id="linear-gradient-34" x1="174.5" y1="119.02" x2="169.97" y2="119.02" gradientTransform="matrix(0, 1, 1, 0, -101.21, -169.49)" xlink:href="#linear-gradient-2"/><linearGradient id="linear-gradient-35" x1="169.62" y1="110.41" x2="175.13" y2="110.41" gradientTransform="matrix(0.98, 0.18, 0.18, -0.98, -172.72, 89.83)" xlink:href="#linear-gradient-3"/><linearGradient id="linear-gradient-36" x1="169.62" y1="101.92" x2="175.13" y2="101.92" gradientTransform="matrix(0, 1, 1, 0, -87.19, -152.71)" xlink:href="#linear-gradient-3"/><linearGradient id="linear-gradient-37" x1="173.7" y1="118.44" x2="170.24" y2="119.46" gradientTransform="matrix(0.98, 0.18, 0.18, -0.98, -172.72, 89.83)" xlink:href="#linear-gradient-5"/><radialGradient id="radial-gradient-19" cx="255.35" cy="-20.65" r="1.52" gradientTransform="matrix(0.7, 0.12, 0.12, -0.7, -161.03, -40.95)" xlink:href="#radial-gradient"/><radialGradient id="radial-gradient-20" cx="256.26" cy="-22.91" r="3.08" gradientTransform="matrix(0.7, 0.12, 0.12, -0.7, -161.03, -40.95)" xlink:href="#radial-gradient"/><radialGradient id="radial-gradient-21" cx="257.2" cy="-24.88" r="4.65" gradientTransform="matrix(0.7, 0.12, 0.12, -0.7, -161.03, -40.95)" xlink:href="#radial-gradient"/><radialGradient id="radial-gradient-22" cx="258.19" cy="-26.55" r="6.28" gradientTransform="matrix(0.7, 0.12, 0.12, -0.7, -161.03, -40.95)" xlink:href="#radial-gradient"/><radialGradient id="radial-gradient-23" cx="258.56" cy="-30.21" r="6.45" gradientTransform="matrix(0.7, 0.12, 0.12, -0.7, -161.03, -40.95)" xlink:href="#radial-gradient"/><radialGradient id="radial-gradient-24" cx="258.55" cy="-34.48" r="5.78" gradientTransform="matrix(0.7, 0.12, 0.12, -0.7, -161.03, -40.95)" xlink:href="#radial-gradient"/><radialGradient id="radial-gradient-25" cx="259.01" cy="-37.33" r="4.5" gradientTransform="matrix(0.7, 0.12, 0.12, -0.7, -161.03, -40.95)" xlink:href="#radial-gradient-7"/><radialGradient id="radial-gradient-26" cx="260.11" cy="-39.53" r="2.89" gradientTransform="matrix(0.7, 0.12, 0.12, -0.7, -161.03, -40.95)" xlink:href="#radial-gradient-8"/><radialGradient id="radial-gradient-27" cx="261.35" cy="-41.41" r="1.24" gradientTransform="matrix(0.7, 0.12, 0.12, -0.7, -161.03, -40.95)" xlink:href="#radial-gradient-9"/><linearGradient id="linear-gradient-38" x1="169.88" y1="102.18" x2="175.13" y2="102.18" gradientTransform="matrix(0.98, 0.18, 0.18, -0.98, -172.72, 89.83)" xlink:href="#linear-gradient-6"/><linearGradient id="linear-gradient-39" x1="169.56" y1="103.59" x2="175.13" y2="103.59" gradientTransform="matrix(0.98, 0.18, 0.18, -0.98, -172.72, 89.83)" xlink:href="#linear-gradient-6"/><linearGradient id="linear-gradient-40" x1="169.56" y1="105" x2="175.13" y2="105" gradientTransform="matrix(0.98, 0.18, 0.18, -0.98, -172.72, 89.83)" xlink:href="#linear-gradient-6"/><linearGradient id="linear-gradient-41" x1="169.57" y1="106.9" x2="175.13" y2="106.9" gradientTransform="matrix(0.98, 0.18, 0.18, -0.98, -172.72, 89.83)" xlink:href="#linear-gradient-6"/><linearGradient id="linear-gradient-42" x1="169.57" y1="109.93" x2="175.13" y2="109.93" gradientTransform="matrix(0.98, 0.18, 0.18, -0.98, -172.72, 89.83)" xlink:href="#linear-gradient-6"/><linearGradient id="linear-gradient-43" x1="169.57" y1="112.71" x2="175.13" y2="112.71" gradientTransform="matrix(0.98, 0.18, 0.18, -0.98, -172.72, 89.83)" xlink:href="#linear-gradient-6"/><linearGradient id="linear-gradient-44" x1="169.57" y1="113.54" x2="174.64" y2="113.54" gradientTransform="matrix(0.98, 0.18, 0.18, -0.98, -172.72, 89.83)" xlink:href="#linear-gradient-6"/><linearGradient id="linear-gradient-45" x1="169.57" y1="114.76" x2="174.25" y2="114.76" gradientTransform="matrix(0.98, 0.18, 0.18, -0.98, -172.72, 89.83)" xlink:href="#linear-gradient-6"/><linearGradient id="linear-gradient-46" x1="169.57" y1="116.5" x2="173.69" y2="116.5" gradientTransform="matrix(0.98, 0.18, 0.18, -0.98, -172.72, 89.83)" xlink:href="#linear-gradient-6"/><linearGradient id="linear-gradient-47" x1="169.57" y1="118.49" x2="172.15" y2="118.49" gradientTransform="matrix(0.98, 0.18, 0.18, -0.98, -172.72, 89.83)" xlink:href="#linear-gradient-6"/><linearGradient id="linear-gradient-48" x1="172.42" y1="118.52" x2="170.18" y2="119.18" gradientTransform="matrix(0.98, 0.18, 0.18, -0.98, -172.72, 89.83)" xlink:href="#linear-gradient-16"/><linearGradient id="linear-gradient-49" x1="223.41" y1="180.39" x2="217.71" y2="180.39" gradientTransform="matrix(0.93, 0.36, 0.36, -0.93, -240.58, 91.19)" xlink:href="#linear-gradient"/><linearGradient id="linear-gradient-50" x1="223.33" y1="181.79" x2="218.81" y2="181.79" gradientTransform="matrix(0, 1, 1, 0, -150.55, -218.77)" xlink:href="#linear-gradient-2"/><linearGradient id="linear-gradient-51" x1="217.98" y1="172.66" x2="223.49" y2="172.66" gradientTransform="matrix(0.93, 0.36, 0.36, -0.93, -240.58, 91.19)" xlink:href="#linear-gradient-3"/><linearGradient id="linear-gradient-52" x1="217.98" y1="164.22" x2="223.49" y2="164.22" gradientTransform="matrix(0, 1, 1, 0, -139.56, -202.32)" xlink:href="#linear-gradient-3"/><linearGradient id="linear-gradient-53" x1="222.01" y1="180.53" x2="218.55" y2="181.54" gradientTransform="matrix(0.93, 0.36, 0.36, -0.93, -240.58, 91.19)" xlink:href="#linear-gradient-5"/><radialGradient id="radial-gradient-28" cx="337.96" cy="67.42" r="1.52" gradientTransform="matrix(0.66, 0.26, 0.26, -0.66, -212.52, -39.5)" xlink:href="#radial-gradient"/><radialGradient id="radial-gradient-29" cx="338.86" cy="65.16" r="3.08" gradientTransform="matrix(0.66, 0.26, 0.26, -0.66, -212.52, -39.5)" xlink:href="#radial-gradient"/><radialGradient id="radial-gradient-30" cx="339.81" cy="63.19" r="4.65" gradientTransform="matrix(0.66, 0.26, 0.26, -0.66, -212.52, -39.5)" xlink:href="#radial-gradient"/><radialGradient id="radial-gradient-31" cx="340.79" cy="61.53" r="6.28" gradientTransform="matrix(0.66, 0.26, 0.26, -0.66, -212.52, -39.5)" xlink:href="#radial-gradient"/><radialGradient id="radial-gradient-32" cx="341.16" cy="57.86" r="6.45" gradientTransform="matrix(0.66, 0.26, 0.26, -0.66, -212.52, -39.5)" xlink:href="#radial-gradient"/><radialGradient id="radial-gradient-33" cx="341.15" cy="53.59" r="5.77" gradientTransform="matrix(0.66, 0.26, 0.26, -0.66, -212.52, -39.5)" xlink:href="#radial-gradient"/><radialGradient id="radial-gradient-34" cx="341.61" cy="50.74" r="4.5" gradientTransform="matrix(0.66, 0.26, 0.26, -0.66, -212.52, -39.5)" xlink:href="#radial-gradient-7"/><radialGradient id="radial-gradient-35" cx="342.71" cy="48.55" r="2.89" gradientTransform="matrix(0.66, 0.26, 0.26, -0.66, -212.52, -39.5)" xlink:href="#radial-gradient-8"/><radialGradient id="radial-gradient-36" cx="343.94" cy="46.66" r="1.24" gradientTransform="matrix(0.66, 0.26, 0.26, -0.66, -212.52, -39.5)" xlink:href="#radial-gradient-9"/><linearGradient id="linear-gradient-54" x1="218.25" y1="164.42" x2="223.49" y2="164.42" gradientTransform="matrix(0.93, 0.36, 0.36, -0.93, -240.58, 91.19)" xlink:href="#linear-gradient-6"/><linearGradient id="linear-gradient-55" x1="217.92" y1="165.55" x2="223.49" y2="165.55" gradientTransform="matrix(0.93, 0.36, 0.36, -0.93, -240.58, 91.19)" xlink:href="#linear-gradient-6"/><linearGradient id="linear-gradient-56" x1="217.92" y1="167.14" x2="223.49" y2="167.14" gradientTransform="matrix(0.93, 0.36, 0.36, -0.93, -240.58, 91.19)" xlink:href="#linear-gradient-6"/><linearGradient id="linear-gradient-57" x1="217.93" y1="169.1" x2="223.49" y2="169.1" gradientTransform="matrix(0.93, 0.36, 0.36, -0.93, -240.58, 91.19)" xlink:href="#linear-gradient-6"/><linearGradient id="linear-gradient-58" x1="217.93" y1="172.01" x2="223.49" y2="172.01" gradientTransform="matrix(0.93, 0.36, 0.36, -0.93, -240.58, 91.19)" xlink:href="#linear-gradient-6"/><linearGradient id="linear-gradient-59" x1="217.93" y1="174.8" x2="223.49" y2="174.8" gradientTransform="matrix(0.93, 0.36, 0.36, -0.93, -240.58, 91.19)" xlink:href="#linear-gradient-6"/><linearGradient id="linear-gradient-60" x1="217.93" y1="175.83" x2="223" y2="175.83" gradientTransform="matrix(0.93, 0.36, 0.36, -0.93, -240.58, 91.19)" xlink:href="#linear-gradient-6"/><linearGradient id="linear-gradient-61" x1="217.93" y1="177.06" x2="222.6" y2="177.06" gradientTransform="matrix(0.93, 0.36, 0.36, -0.93, -240.58, 91.19)" xlink:href="#linear-gradient-6"/><linearGradient id="linear-gradient-62" x1="217.93" y1="178.7" x2="222.05" y2="178.7" gradientTransform="matrix(0.93, 0.36, 0.36, -0.93, -240.58, 91.19)" xlink:href="#linear-gradient-6"/><linearGradient id="linear-gradient-63" x1="217.93" y1="180.58" x2="220.52" y2="180.58" gradientTransform="matrix(0.93, 0.36, 0.36, -0.93, -240.58, 91.19)" xlink:href="#linear-gradient-6"/><linearGradient id="linear-gradient-64" x1="220.75" y1="180.68" x2="218.51" y2="181.34" gradientTransform="matrix(0.93, 0.36, 0.36, -0.93, -240.58, 91.19)" xlink:href="#linear-gradient-16"/><linearGradient id="linear-gradient-65" x1="153.32" y1="75.69" x2="147.62" y2="75.69" gradientTransform="matrix(1, 0.05, 0.05, -1, -128.95, 74.79)" xlink:href="#linear-gradient"/><linearGradient id="linear-gradient-66" x1="152.76" y1="76.21" x2="148.23" y2="76.21" gradientTransform="matrix(0, 1, 1, 0, -51.27, -144.57)" xlink:href="#linear-gradient-2"/><linearGradient id="linear-gradient-67" x1="147.88" y1="67.79" x2="153.39" y2="67.79" gradientTransform="matrix(1, 0.05, 0.05, -1, -128.95, 74.79)" xlink:href="#linear-gradient-3"/><linearGradient id="linear-gradient-68" x1="147.88" y1="59.34" x2="153.39" y2="59.34" gradientTransform="matrix(0, 1, 1, 0, -34.95, -127.64)" xlink:href="#linear-gradient-3"/><linearGradient id="linear-gradient-69" x1="151.94" y1="75.7" x2="148.47" y2="76.71" gradientTransform="matrix(1, 0.05, 0.05, -1, -128.95, 74.79)" xlink:href="#linear-gradient-5"/><radialGradient id="radial-gradient-37" cx="218.4" cy="-73.96" r="1.52" gradientTransform="matrix(0.71, 0.03, 0.03, -0.71, -129.84, -51.71)" xlink:href="#radial-gradient"/><radialGradient id="radial-gradient-38" cx="219.31" cy="-76.21" r="3.08" gradientTransform="matrix(0.71, 0.03, 0.03, -0.71, -129.84, -51.71)" xlink:href="#radial-gradient"/><radialGradient id="radial-gradient-39" cx="220.25" cy="-78.18" r="4.65" gradientTransform="matrix(0.71, 0.03, 0.03, -0.71, -129.84, -51.71)" xlink:href="#radial-gradient"/><radialGradient id="radial-gradient-40" cx="221.24" cy="-79.85" r="6.28" gradientTransform="matrix(0.71, 0.03, 0.03, -0.71, -129.84, -51.71)" xlink:href="#radial-gradient"/><radialGradient id="radial-gradient-41" cx="221.6" cy="-83.51" r="6.45" gradientTransform="matrix(0.71, 0.03, 0.03, -0.71, -129.84, -51.71)" xlink:href="#radial-gradient"/><radialGradient id="radial-gradient-42" cx="221.6" cy="-87.78" r="5.78" gradientTransform="matrix(0.71, 0.03, 0.03, -0.71, -129.84, -51.71)" xlink:href="#radial-gradient"/><radialGradient id="radial-gradient-43" cx="222.05" cy="-90.64" r="4.5" gradientTransform="matrix(0.71, 0.03, 0.03, -0.71, -129.84, -51.71)" xlink:href="#radial-gradient-7"/><radialGradient id="radial-gradient-44" cx="223.15" cy="-92.83" r="2.89" gradientTransform="matrix(0.71, 0.03, 0.03, -0.71, -129.84, -51.71)" xlink:href="#radial-gradient-8"/><radialGradient id="radial-gradient-45" cx="224.39" cy="-94.71" r="1.24" gradientTransform="matrix(0.71, 0.03, 0.03, -0.71, -129.84, -51.71)" xlink:href="#radial-gradient-9"/><linearGradient id="linear-gradient-70" x1="148.14" y1="59.59" x2="153.39" y2="59.59" gradientTransform="matrix(1, 0.05, 0.05, -1, -128.95, 74.79)" xlink:href="#linear-gradient-6"/><linearGradient id="linear-gradient-71" x1="147.82" y1="60.89" x2="153.39" y2="60.89" gradientTransform="matrix(1, 0.05, 0.05, -1, -128.95, 74.79)" xlink:href="#linear-gradient-6"/><linearGradient id="linear-gradient-72" x1="147.82" y1="62.31" x2="153.39" y2="62.31" gradientTransform="matrix(1, 0.05, 0.05, -1, -128.95, 74.79)" xlink:href="#linear-gradient-6"/><linearGradient id="linear-gradient-73" x1="147.83" y1="64.23" x2="153.39" y2="64.23" gradientTransform="matrix(1, 0.05, 0.05, -1, -128.95, 74.79)" xlink:href="#linear-gradient-6"/><linearGradient id="linear-gradient-74" x1="147.83" y1="67.23" x2="153.4" y2="67.23" gradientTransform="matrix(1, 0.05, 0.05, -1, -128.95, 74.79)" xlink:href="#linear-gradient-6"/><linearGradient id="linear-gradient-75" x1="147.83" y1="70.04" x2="153.39" y2="70.04" gradientTransform="matrix(1, 0.05, 0.05, -1, -128.95, 74.79)" xlink:href="#linear-gradient-6"/><linearGradient id="linear-gradient-76" x1="147.83" y1="70.95" x2="152.9" y2="70.95" gradientTransform="matrix(1, 0.05, 0.05, -1, -128.95, 74.79)" xlink:href="#linear-gradient-6"/><linearGradient id="linear-gradient-77" x1="147.83" y1="72.17" x2="152.51" y2="72.17" gradientTransform="matrix(1, 0.05, 0.05, -1, -128.95, 74.79)" xlink:href="#linear-gradient-6"/><linearGradient id="linear-gradient-78" x1="147.83" y1="73.84" x2="151.96" y2="73.84" gradientTransform="matrix(1, 0.05, 0.05, -1, -128.95, 74.79)" xlink:href="#linear-gradient-6"/><linearGradient id="linear-gradient-79" x1="147.83" y1="75.8" x2="150.43" y2="75.8" gradientTransform="matrix(1, 0.05, 0.05, -1, -128.95, 74.79)" xlink:href="#linear-gradient-6"/><linearGradient id="linear-gradient-80" x1="150.67" y1="75.85" x2="148.43" y2="76.51" gradientTransform="matrix(1, 0.05, 0.05, -1, -128.95, 74.79)" xlink:href="#linear-gradient-16"/><linearGradient id="linear-gradient-81" x1="40.87" y1="-10.87" x2="35.16" y2="-10.87" gradientTransform="matrix(0.95, -0.3, -0.3, -0.95, -20.61, 12.05)" xlink:href="#linear-gradient"/><linearGradient id="linear-gradient-82" x1="40.31" y1="-9.95" x2="35.78" y2="-9.95" gradientTransform="matrix(1, 0, 0, -1, -19.31, 0.16)" xlink:href="#linear-gradient-2"/><linearGradient id="linear-gradient-83" x1="35.43" y1="-18.64" x2="40.94" y2="-18.64" gradientTransform="matrix(0.95, -0.3, -0.3, -0.95, -20.61, 12.05)" xlink:href="#linear-gradient-3"/><linearGradient id="linear-gradient-84" x1="35.43" y1="-27.15" x2="40.94" y2="-27.15" gradientTransform="matrix(1, 0, 0, -1, -14.13, -0.89)" xlink:href="#linear-gradient-3"/><linearGradient id="linear-gradient-85" x1="39.46" y1="-10.77" x2="36" y2="-9.76" gradientTransform="matrix(0.95, -0.3, -0.3, -0.95, -20.61, 12.05)" xlink:href="#linear-gradient-5"/><radialGradient id="radial-gradient-46" cx="47.63" cy="-172.99" r="1.52" gradientTransform="matrix(0.68, -0.22, -0.22, -0.68, -52.52, -95.03)" xlink:href="#radial-gradient"/><radialGradient id="radial-gradient-47" cx="48.54" cy="-175.25" r="3.08" gradientTransform="matrix(0.68, -0.22, -0.22, -0.68, -52.52, -95.03)" xlink:href="#radial-gradient"/><radialGradient id="radial-gradient-48" cx="49.48" cy="-177.22" r="4.65" gradientTransform="matrix(0.68, -0.22, -0.22, -0.68, -52.52, -95.03)" xlink:href="#radial-gradient"/><radialGradient id="radial-gradient-49" cx="50.47" cy="-178.88" r="6.28" gradientTransform="matrix(0.68, -0.22, -0.22, -0.68, -52.52, -95.03)" xlink:href="#radial-gradient"/><radialGradient id="radial-gradient-50" cx="50.83" cy="-182.54" r="6.45" gradientTransform="matrix(0.68, -0.22, -0.22, -0.68, -52.52, -95.03)" xlink:href="#radial-gradient"/><radialGradient id="radial-gradient-51" cx="50.83" cy="-186.82" r="5.78" gradientTransform="matrix(0.68, -0.22, -0.22, -0.68, -52.52, -95.03)" xlink:href="#radial-gradient"/><radialGradient id="radial-gradient-52" cx="51.28" cy="-189.67" r="4.5" gradientTransform="matrix(0.68, -0.22, -0.22, -0.68, -52.52, -95.03)" xlink:href="#radial-gradient-7"/><radialGradient id="radial-gradient-53" cx="52.38" cy="-191.86" r="2.89" gradientTransform="matrix(0.68, -0.22, -0.22, -0.68, -52.52, -95.03)" xlink:href="#radial-gradient-8"/><radialGradient id="radial-gradient-54" cx="53.62" cy="-193.75" r="1.24" gradientTransform="matrix(0.68, -0.22, -0.22, -0.68, -52.52, -95.03)" xlink:href="#radial-gradient-9"/><linearGradient id="linear-gradient-86" x1="35.7" y1="-26.95" x2="40.94" y2="-26.95" gradientTransform="matrix(0.95, -0.3, -0.3, -0.95, -20.61, 12.05)" xlink:href="#linear-gradient-6"/><linearGradient id="linear-gradient-87" x1="35.37" y1="-25.59" x2="40.94" y2="-25.59" gradientTransform="matrix(0.95, -0.3, -0.3, -0.95, -20.61, 12.05)" xlink:href="#linear-gradient-6"/><linearGradient id="linear-gradient-88" x1="35.37" y1="-24.21" x2="40.94" y2="-24.21" gradientTransform="matrix(0.95, -0.3, -0.3, -0.95, -20.61, 12.05)" xlink:href="#linear-gradient-6"/><linearGradient id="linear-gradient-89" x1="35.38" y1="-22.13" x2="40.94" y2="-22.13" gradientTransform="matrix(0.95, -0.3, -0.3, -0.95, -20.61, 12.05)" xlink:href="#linear-gradient-6"/><linearGradient id="linear-gradient-90" x1="35.38" y1="-19.19" x2="40.94" y2="-19.19" gradientTransform="matrix(0.95, -0.3, -0.3, -0.95, -20.61, 12.05)" xlink:href="#linear-gradient-6"/><linearGradient id="linear-gradient-91" x1="35.38" y1="-16.5" x2="40.94" y2="-16.5" gradientTransform="matrix(0.95, -0.3, -0.3, -0.95, -20.61, 12.05)" xlink:href="#linear-gradient-6"/><linearGradient id="linear-gradient-92" x1="35.38" y1="-15.59" x2="40.45" y2="-15.59" gradientTransform="matrix(0.95, -0.3, -0.3, -0.95, -20.61, 12.05)" xlink:href="#linear-gradient-6"/><linearGradient id="linear-gradient-93" x1="35.38" y1="-14.28" x2="40.05" y2="-14.28" gradientTransform="matrix(0.95, -0.3, -0.3, -0.95, -20.61, 12.05)" xlink:href="#linear-gradient-6"/><linearGradient id="linear-gradient-94" x1="35.38" y1="-12.58" x2="39.51" y2="-12.58" gradientTransform="matrix(0.95, -0.3, -0.3, -0.95, -20.61, 12.05)" xlink:href="#linear-gradient-6"/><linearGradient id="linear-gradient-95" x1="35.38" y1="-10.72" x2="37.98" y2="-10.72" gradientTransform="matrix(0.95, -0.3, -0.3, -0.95, -20.61, 12.05)" xlink:href="#linear-gradient-6"/><linearGradient id="linear-gradient-96" x1="38.23" y1="-10.54" x2="35.99" y2="-9.89" gradientTransform="matrix(0.95, -0.3, -0.3, -0.95, -20.61, 12.05)" xlink:href="#linear-gradient-16"/><linearGradient id="linear-gradient-97" x1="-5.06" y1="-41.02" x2="-10.76" y2="-41.02" gradientTransform="matrix(0.91, -0.42, -0.42, -0.91, 10.33, -35.47)" xlink:href="#linear-gradient"/><linearGradient id="linear-gradient-98" x1="-5.62" y1="-40.44" x2="-10.14" y2="-40.44" gradientTransform="matrix(1, 0, 0, -1, 28.01, -36.03)" xlink:href="#linear-gradient-2"/><linearGradient id="linear-gradient-99" x1="-10.49" y1="-48.86" x2="-4.98" y2="-48.86" gradientTransform="matrix(0.91, -0.42, -0.42, -0.91, 10.33, -35.47)" xlink:href="#linear-gradient-3"/><linearGradient id="linear-gradient-100" x1="-10.49" y1="-57.34" x2="-4.99" y2="-57.34" gradientTransform="matrix(1, 0, 0, -1, 35.22, -37.5)" xlink:href="#linear-gradient-3"/><linearGradient id="linear-gradient-101" x1="-6.43" y1="-40.91" x2="-9.89" y2="-39.89" gradientTransform="matrix(0.91, -0.42, -0.42, -0.91, 10.33, -35.47)" xlink:href="#linear-gradient-5"/><radialGradient id="radial-gradient-55" cx="-16.1" cy="-208.39" r="1.52" gradientTransform="matrix(0.64, -0.3, -0.3, -0.64, -33.52, -131.26)" xlink:href="#radial-gradient"/><radialGradient id="radial-gradient-56" cx="-15.19" cy="-210.65" r="3.08" gradientTransform="matrix(0.64, -0.3, -0.3, -0.64, -33.52, -131.26)" xlink:href="#radial-gradient"/><radialGradient id="radial-gradient-57" cx="-14.25" cy="-212.61" r="4.65" gradientTransform="matrix(0.64, -0.3, -0.3, -0.64, -33.52, -131.26)" xlink:href="#radial-gradient"/><radialGradient id="radial-gradient-58" cx="-13.26" cy="-214.28" r="6.28" gradientTransform="matrix(0.64, -0.3, -0.3, -0.64, -33.52, -131.26)" xlink:href="#radial-gradient"/><radialGradient id="radial-gradient-59" cx="-12.9" cy="-217.94" r="6.45" gradientTransform="matrix(0.64, -0.3, -0.3, -0.64, -33.52, -131.26)" xlink:href="#radial-gradient"/><radialGradient id="radial-gradient-60" cx="-12.9" cy="-222.22" r="5.78" gradientTransform="matrix(0.64, -0.3, -0.3, -0.64, -33.52, -131.26)" xlink:href="#radial-gradient"/><radialGradient id="radial-gradient-61" cx="-12.45" cy="-225.07" r="4.5" gradientTransform="matrix(0.64, -0.3, -0.3, -0.64, -33.52, -131.26)" xlink:href="#radial-gradient-7"/><radialGradient id="radial-gradient-62" cx="-11.35" cy="-227.26" r="2.89" gradientTransform="matrix(0.64, -0.3, -0.3, -0.64, -33.52, -131.26)" xlink:href="#radial-gradient-8"/><radialGradient id="radial-gradient-63" cx="-10.11" cy="-229.15" r="1.24" gradientTransform="matrix(0.64, -0.3, -0.3, -0.64, -33.52, -131.26)" xlink:href="#radial-gradient-9"/><linearGradient id="linear-gradient-102" x1="-10.23" y1="-57.1" x2="-4.99" y2="-57.1" gradientTransform="matrix(0.91, -0.42, -0.42, -0.91, 10.33, -35.47)" xlink:href="#linear-gradient-6"/><linearGradient id="linear-gradient-103" x1="-10.56" y1="-55.83" x2="-4.98" y2="-55.83" gradientTransform="matrix(0.91, -0.42, -0.42, -0.91, 10.33, -35.47)" xlink:href="#linear-gradient-6"/><linearGradient id="linear-gradient-104" x1="-10.56" y1="-54.22" x2="-4.99" y2="-54.22" gradientTransform="matrix(0.91, -0.42, -0.42, -0.91, 10.33, -35.47)" xlink:href="#linear-gradient-6"/><linearGradient id="linear-gradient-105" x1="-10.54" y1="-52.33" x2="-4.98" y2="-52.33" gradientTransform="matrix(0.91, -0.42, -0.42, -0.91, 10.33, -35.47)" xlink:href="#linear-gradient-6"/><linearGradient id="linear-gradient-106" x1="-10.55" y1="-49.34" x2="-4.99" y2="-49.34" gradientTransform="matrix(0.91, -0.42, -0.42, -0.91, 10.33, -35.47)" xlink:href="#linear-gradient-6"/><linearGradient id="linear-gradient-107" x1="-10.55" y1="-46.66" x2="-4.98" y2="-46.66" gradientTransform="matrix(0.91, -0.42, -0.42, -0.91, 10.33, -35.47)" xlink:href="#linear-gradient-6"/><linearGradient id="linear-gradient-108" x1="-10.55" y1="-45.74" x2="-5.48" y2="-45.74" gradientTransform="matrix(0.91, -0.42, -0.42, -0.91, 10.33, -35.47)" xlink:href="#linear-gradient-6"/><linearGradient id="linear-gradient-109" x1="-10.55" y1="-44.39" x2="-5.87" y2="-44.39" gradientTransform="matrix(0.91, -0.42, -0.42, -0.91, 10.33, -35.47)" xlink:href="#linear-gradient-6"/><linearGradient id="linear-gradient-110" x1="-10.55" y1="-42.78" x2="-6.42" y2="-42.78" gradientTransform="matrix(0.91, -0.42, -0.42, -0.91, 10.33, -35.47)" xlink:href="#linear-gradient-6"/><linearGradient id="linear-gradient-111" x1="-10.55" y1="-40.85" x2="-7.97" y2="-40.85" gradientTransform="matrix(0.91, -0.42, -0.42, -0.91, 10.33, -35.47)" xlink:href="#linear-gradient-6"/><linearGradient id="linear-gradient-112" x1="-7.72" y1="-40.8" x2="-9.96" y2="-40.14" gradientTransform="matrix(0.91, -0.42, -0.42, -0.91, 10.33, -35.47)" xlink:href="#linear-gradient-16"/><linearGradient id="linear-gradient-113" x1="142.9" y1="21.41" x2="163.75" y2="21.41" gradientTransform="matrix(1, 0, 0, -1, 0, 42.39)" xlink:href="#linear-gradient-6"/><linearGradient id="linear-gradient-114" x1="235.21" y1="67.61" x2="224.38" y2="67.61" gradientTransform="matrix(0.99, 0.17, 0.17, -0.99, -80.92, 31.97)" xlink:href="#linear-gradient"/><linearGradient id="linear-gradient-115" x1="234.3" y1="71.73" x2="225.7" y2="71.73" gradientTransform="matrix(0, 1, 1, 0, 86.03, -229.86)" xlink:href="#linear-gradient-2"/><linearGradient id="linear-gradient-116" x1="224.89" y1="52.73" x2="235.36" y2="52.73" gradientTransform="matrix(0.99, 0.17, 0.17, -0.99, -80.92, 31.97)" xlink:href="#linear-gradient-3"/><linearGradient id="linear-gradient-117" x1="224.89" y1="36.65" x2="235.36" y2="36.65" gradientTransform="matrix(0, 1, 1, 0, 115.41, -196.23)" xlink:href="#linear-gradient-3"/><linearGradient id="linear-gradient-118" x1="232.57" y1="67.76" x2="225.98" y2="69.69" gradientTransform="matrix(0.99, 0.17, 0.17, -0.99, -80.92, 31.97)" xlink:href="#linear-gradient-5"/><radialGradient id="radial-gradient-64" cx="370.19" cy="-60.09" r="2.89" gradientTransform="matrix(0.7, 0.12, 0.12, -0.7, -99.3, -80.81)" xlink:href="#radial-gradient"/><radialGradient id="radial-gradient-65" cx="371.92" cy="-64.39" r="5.86" gradientTransform="matrix(0.7, 0.12, 0.12, -0.7, -99.3, -80.81)" xlink:href="#radial-gradient"/><radialGradient id="radial-gradient-66" cx="373.71" cy="-68.13" r="8.84" gradientTransform="matrix(0.7, 0.12, 0.12, -0.7, -99.3, -80.81)" xlink:href="#radial-gradient"/><radialGradient id="radial-gradient-67" cx="375.58" cy="-71.29" r="11.94" gradientTransform="matrix(0.7, 0.12, 0.12, -0.7, -99.3, -80.81)" xlink:href="#radial-gradient"/><radialGradient id="radial-gradient-68" cx="376.27" cy="-78.26" r="12.25" gradientTransform="matrix(0.7, 0.12, 0.12, -0.7, -99.3, -80.81)" xlink:href="#radial-gradient"/><radialGradient id="radial-gradient-69" cx="376.27" cy="-86.38" r="10.98" gradientTransform="matrix(0.7, 0.12, 0.12, -0.7, -99.3, -80.81)" xlink:href="#radial-gradient"/><radialGradient id="radial-gradient-70" cx="377.13" cy="-91.8" r="8.55" gradientTransform="matrix(0.7, 0.12, 0.12, -0.7, -99.3, -80.81)" xlink:href="#radial-gradient-7"/><radialGradient id="radial-gradient-71" cx="379.23" cy="-95.97" r="5.49" gradientTransform="matrix(0.7, 0.12, 0.12, -0.7, -99.3, -80.81)" xlink:href="#radial-gradient-8"/><radialGradient id="radial-gradient-72" cx="381.58" cy="-99.55" r="2.35" gradientTransform="matrix(0.7, 0.12, 0.12, -0.7, -99.3, -80.81)" xlink:href="#radial-gradient-9"/><linearGradient id="linear-gradient-119" x1="225.38" y1="37.06" x2="235.36" y2="37.06" gradientTransform="matrix(0.99, 0.17, 0.17, -0.99, -80.92, 31.97)" xlink:href="#linear-gradient-6"/><linearGradient id="linear-gradient-120" x1="224.77" y1="39.48" x2="235.36" y2="39.48" gradientTransform="matrix(0.99, 0.17, 0.17, -0.99, -80.92, 31.97)" xlink:href="#linear-gradient-6"/><linearGradient id="linear-gradient-121" x1="224.77" y1="42.43" x2="235.36" y2="42.43" gradientTransform="matrix(0.99, 0.17, 0.17, -0.99, -80.92, 31.97)" xlink:href="#linear-gradient-6"/><linearGradient id="linear-gradient-122" x1="224.79" y1="46.07" x2="235.36" y2="46.07" gradientTransform="matrix(0.99, 0.17, 0.17, -0.99, -80.92, 31.97)" xlink:href="#linear-gradient-6"/><linearGradient id="linear-gradient-123" x1="224.79" y1="51.76" x2="235.36" y2="51.76" gradientTransform="matrix(0.99, 0.17, 0.17, -0.99, -80.92, 31.97)" xlink:href="#linear-gradient-6"/><linearGradient id="linear-gradient-124" x1="224.79" y1="56.9" x2="235.36" y2="56.9" gradientTransform="matrix(0.99, 0.17, 0.17, -0.99, -80.92, 31.97)" xlink:href="#linear-gradient-6"/><linearGradient id="linear-gradient-125" x1="224.79" y1="58.62" x2="234.42" y2="58.62" gradientTransform="matrix(0.99, 0.17, 0.17, -0.99, -80.92, 31.97)" xlink:href="#linear-gradient-6"/><linearGradient id="linear-gradient-126" x1="224.79" y1="61.21" x2="233.67" y2="61.21" gradientTransform="matrix(0.99, 0.17, 0.17, -0.99, -80.92, 31.97)" xlink:href="#linear-gradient-6"/><linearGradient id="linear-gradient-127" x1="224.79" y1="64.21" x2="232.63" y2="64.21" gradientTransform="matrix(0.99, 0.17, 0.17, -0.99, -80.92, 31.97)" xlink:href="#linear-gradient-6"/><linearGradient id="linear-gradient-128" x1="224.79" y1="67.95" x2="229.71" y2="67.95" gradientTransform="matrix(0.99, 0.17, 0.17, -0.99, -80.92, 31.97)" xlink:href="#linear-gradient-6"/><linearGradient id="linear-gradient-129" x1="230.19" y1="68.16" x2="225.93" y2="69.4" gradientTransform="matrix(0.99, 0.17, 0.17, -0.99, -80.92, 31.97)" xlink:href="#linear-gradient-16"/></defs><g id="Layer_2" data-name="Layer 2"><g id="Layer_1-2" data-name="Layer 1"><line class="cls-1" x1="34.63" y1="28.3" x2="152.43" y2="28.3"/><rect class="cls-2" x="34.63" y="27.9" width="117.8" height="0.84"/><path class="cls-3" d="M7.13,16c3.9,1.6-6.6-2.1-4.4-.6l.4.8h0v.3h0l.2.3h0a32.11,32.11,0,0,1,3,13.5l2,6.2a16.76,16.76,0,0,0,7,3s11,1.8,15.8-3.2c0,0,2.3-2.9,2.4-5.5a99.83,99.83,0,0,1-2.7-10c-.4-2.8-.5-3.6-.6-5.2v-.2h-.1V13.7h0V13"/><path class="cls-4" d="M3.63,7.6c2.2-1.4,1.4-3,1.2-3.4S3.33,4.2,2,5-.17,6.8,0,7.1A2.62,2.62,0,0,0,3.63,7.6Z"/><ellipse class="cls-5" cx="2.46" cy="5.72" rx="2.2" ry="0.6" transform="translate(-2.64 2.15) rotate(-31.7)"/><path class="cls-6" d="M4.63,4.9,4,5.6c0,.2-.2.4-.4.3l-.7.5c0,.2-.3.4-.4.2l-.7.4c0,.2-.4.3-.4.2l-.8.2c0,.3-.2.1-.4-.2L9,21.6l4.7-2.9h0L4.83,4.2h0C4.93,4.5,5,4.9,4.63,4.9Z"/><ellipse class="cls-7" cx="11.32" cy="20.16" rx="2.8" ry="0.8" transform="translate(-8.92 8.99) rotate(-31.8)"/><path class="cls-8" d="M.53,6.8c.1.2.7.1,1.4-.2V6.3a3.45,3.45,0,0,1-.1-.9C.93,6,.43,6.6.53,6.8Z"/><path class="cls-9" d="M1.23,7.1a5.94,5.94,0,0,0,.1,1.1,6.88,6.88,0,0,1,.2,1.3l.4.6a7.78,7.78,0,0,0-.1-1.6,6.59,6.59,0,0,0-.5-1.3Z"/><path class="cls-10" d="M2.83,9.3c.1.8.2,2.1.3,2.6h0l.4.6c0-.7-.1-1.7-.2-2.7a19.55,19.55,0,0,0-.8-3.4h0S2.73,8.5,2.83,9.3Z"/><path class="cls-11" d="M5,15.1a26.26,26.26,0,0,0-.1-3.2,34.4,34.4,0,0,0-.7-4.3,12.7,12.7,0,0,0-.6-1.7h0l.6,3.6a42,42,0,0,1,.4,4.2v.8Z"/><path class="cls-12" d="M6.43,17.4a29.69,29.69,0,0,0,.1-4,82.89,82.89,0,0,0-1.8-8.5h0s.7,3.7.9,5.1a34.73,34.73,0,0,1,.3,5.2v1.4Z"/><path class="cls-13" d="M7.13,18.5l.7,1.1a43,43,0,0,0-.1-5.9,50.44,50.44,0,0,0-1.3-7,64.86,64.86,0,0,1,.8,7.5A29.41,29.41,0,0,1,7.13,18.5Z"/><path class="cls-14" d="M8.43,20.6l.6.9c.1-.8.2-2.3.3-4.1a46,46,0,0,0-.9-7.4s.3,2.9.3,6.5A31.29,31.29,0,0,1,8.43,20.6Z"/><path class="cls-15" d="M9.83,21.7l.6-.2a22.13,22.13,0,0,0,.2-3.2,26,26,0,0,0-.5-5.5s.1,2.1,0,5.5C10,19.5,9.93,21,9.83,21.7Z"/><path class="cls-16" d="M11.53,19.5c-.1.7-.1,1.2-.2,1.6l.5-.3h.1a24.39,24.39,0,0,0-.3-5.4S11.53,18.4,11.53,19.5Z"/><path class="cls-17" d="M12.83,19.9v.2l.6-.6a7.14,7.14,0,0,0-.2-1.9A22.57,22.57,0,0,1,12.83,19.9Z"/><path class="cls-18" d="M13.13,19.8c0,.1.4,0,.4-.5v-.8l-.5-.7A13.4,13.4,0,0,0,13.13,19.8Z"/><path class="cls-19" d="M11.73,16a39.67,39.67,0,0,1-.1,4.9h.2l.2-.3a32.29,32.29,0,0,0,0-4.4l-.5-.8Z"/><path class="cls-20" d="M10.33,15.7a51.22,51.22,0,0,1-.1,5.4v.5h.2l.2-.2a51.63,51.63,0,0,0,.1-5.7c0-.7-.1-1.4-.1-2l-.6-.9A13.58,13.58,0,0,1,10.33,15.7Z"/><path class="cls-21" d="M8.93,15.4a51.22,51.22,0,0,1-.1,5.4v.6l.2.2h.3a54.74,54.74,0,0,0,.2-6.4A42.21,42.21,0,0,0,9,11l-.6-1A39,39,0,0,1,8.93,15.4Z"/><path class="cls-22" d="M7.63,15.1c.1,1.4,0,2.9,0,4.2L8,20a46.33,46.33,0,0,0,0-5,40.33,40.33,0,0,0-.9-7.1l-.8-1.1A41.47,41.47,0,0,1,7.63,15.1Z"/><path class="cls-23" d="M4.63,4.9l.3,1a42.54,42.54,0,0,1,1.4,8.9v2.4l.4.7V14.7a43.47,43.47,0,0,0-1.4-9l-.4-1.2-.1-.3h0a.39.39,0,0,1,0,.56A.45.45,0,0,1,4.63,4.9Z"/><path class="cls-24" d="M4.83,14.4v.5l.5.8V14.4a42.82,42.82,0,0,0-1.4-8.8.31.31,0,0,1-.1.3h-.3A42.1,42.1,0,0,1,4.83,14.4Z"/><path class="cls-25" d="M2.73,6.6h-.3a41.81,41.81,0,0,1,.9,5.9l.5.8a41.28,41.28,0,0,0-1-7A.44.44,0,0,1,2.73,6.6Z"/><path class="cls-26" d="M1.73,9.9l.6.9q-.21-2-.6-3.9l-.2.2h-.3C1.43,8.1,1.63,9,1.73,9.9Z"/><path class="cls-27" d="M0,7.1l.5.9V7.3a.31.31,0,0,1-.43,0A.31.31,0,0,1,0,7.1Z"/><path class="cls-28" d="M1,5.9c-.4.4-.6.7-.5.9s.5.2,1,0Z"/><path class="cls-29" d="M11.13,8.8c2.6.1,2.9-1.6,2.9-2.1s-1.2-.9-2.7-1-2.8.2-2.8.7S8.63,8.6,11.13,8.8Z"/><ellipse class="cls-30" cx="11.29" cy="6.54" rx="0.6" ry="2.2" transform="translate(4.19 17.48) rotate(-87.1)"/><path class="cls-31" d="M13.43,7.1l-.9.2c-.1.2-.4.3-.5,0h-.9a.28.28,0,0,1-.5,0h-.8a.32.32,0,0,1-.5-.1l-.8-.3c-.2.2-.3-.1-.2-.4l-.8,17,5.6.3h0l.8-17h0C13.93,7,13.73,7.4,13.43,7.1Z"/><ellipse class="cls-32" cx="10.3" cy="23.55" rx="0.8" ry="2.8" transform="matrix(0.05, -1, 1, 0.05, -13.72, 32.69)"/><path class="cls-33" d="M9,6.5c0,.3.5.5,1.3.7V6.7a3.33,3.33,0,0,1,.4-.8C9.73,5.9,9,6.1,9,6.5Z"/><path class="cls-34" d="M9.43,7.1l-.5.9c-.2.3-.4.9-.6,1.2v.7a8.44,8.44,0,0,0,.8-1.4A6.86,6.86,0,0,0,9.43,7.1Z"/><path class="cls-35" d="M9.43,9.8l-1.2,2.3h-.1v.7l1.4-2.4a20.2,20.2,0,0,0,1.2-3.2h0Z"/><path class="cls-36" d="M7.93,15.8a27.16,27.16,0,0,0,1.7-2.7,34.83,34.83,0,0,0,1.9-4A15,15,0,0,0,12,7.4h0l-1.6,3.2a41.29,41.29,0,0,1-2,3.7l-.4.6Z"/><path class="cls-37" d="M7.83,18.4a32.77,32.77,0,0,0,2.3-3.2c.9-1.6,3.3-8,3.3-8.1h0l-2.2,4.7a34.79,34.79,0,0,1-2.6,4.5l-.8,1.1Z"/><path class="cls-38" d="M7.73,19.8v1.3a42.47,42.47,0,0,0,3.2-4.9,50.31,50.31,0,0,0,2.9-6.5,66.08,66.08,0,0,1-3.5,6.6A29.65,29.65,0,0,1,7.73,19.8Z"/><path class="cls-39" d="M7.63,22.3v1.1c.5-.6,1.5-1.7,2.6-3.2a47.35,47.35,0,0,0,3.5-6.6s-1.4,2.5-3.4,5.5A32.87,32.87,0,0,1,7.63,22.3Z"/><path class="cls-40" d="M8.23,23.9l.6.2c.4-.5,1.2-1.4,2-2.5a26.62,26.62,0,0,0,2.7-4.8s-1.1,1.8-3.1,4.5Z"/><path class="cls-41" d="M10.83,23.1l-1,1.2h.8a25.69,25.69,0,0,0,2.8-4.6Z"/><path class="cls-42" d="M11.63,24.2h.6a6.93,6.93,0,0,0,.9-1.7A22,22,0,0,1,11.63,24.2Z"/><path class="cls-43" d="M12,24.2c-.1.1.4.2.7-.2l.5-.7v-.9A12.25,12.25,0,0,0,12,24.2Z"/><path class="cls-44" d="M12.93,20.3c-.9,1.4-1.9,2.8-2.8,4h.6c.8-1.1,1.8-2.4,2.6-3.6v-1Z"/><path class="cls-45" d="M12,19.3a52,52,0,0,1-3.1,4.4l-.3.4.2.2h.3a53.47,53.47,0,0,0,3.3-4.6l1-1.7V16.8Z"/><path class="cls-46" d="M11.13,18.3A49.77,49.77,0,0,1,8,22.7l-.4.5v.3a.19.19,0,0,0,0,.27l.05,0a55.66,55.66,0,0,0,3.7-5.2,42.59,42.59,0,0,0,2.1-3.8V13.5A39.8,39.8,0,0,1,11.13,18.3Z"/><path class="cls-47" d="M10.13,17.2c-.7,1.2-1.6,2.4-2.4,3.5v.8q1.54-1.93,2.9-4a40.09,40.09,0,0,0,3.2-6.3V9.7A41.81,41.81,0,0,1,10.13,17.2Z"/><path class="cls-48" d="M13.43,7.1l-.3.9a43.08,43.08,0,0,1-3.9,8.2l-1.4,2V19l1.8-2.6a43.69,43.69,0,0,0,3.9-8.2l.4-1.2V6.7h0C13.93,7,13.83,7.2,13.43,7.1Z"/><path class="cls-49" d="M8.23,15.1l-.3.4v.9l.7-1.1a43.52,43.52,0,0,0,3.9-8H12A42,42,0,0,1,8.23,15.1Z"/><path class="cls-50" d="M10.93,7.5h-.2a40.6,40.6,0,0,1-2.6,5.4v1a42,42,0,0,0,3.1-6.4Z"/><path class="cls-51" d="M8.23,9.7v1.1a39.21,39.21,0,0,0,1.6-3.6h-.4Z"/><path class="cls-52" d="M8.43,6.4v1l.3-.7a.3.3,0,0,1-.3-.3Z"/><path class="cls-53" d="M9.93,6c-.6.1-.9.3-.9.5s.3.4.8.6Z"/><path class="cls-54" d="M17.43,5.1c2.6.5,3-1.2,3.1-1.7s-1.1-1-2.6-1.3-2.8-.1-2.9.3S15,4.7,17.43,5.1Z"/><ellipse class="cls-55" cx="17.81" cy="2.85" rx="0.6" ry="2.2" transform="translate(11.88 19.88) rotate(-79.9)"/><path class="cls-56" d="M19.93,3.8H19a.28.28,0,0,1-.5,0h-.9c-.1.1-.5.1-.5-.1l-.8-.2c-.2.2-.5,0-.4-.2l-.7-.4c-.2.2-.3-.1-.2-.4L12,19.2l5.5,1h0l3-16.7h0C20.43,3.7,20.23,4.1,19.93,3.8Z"/><ellipse class="cls-57" cx="14.72" cy="19.63" rx="0.8" ry="2.8" transform="translate(-7.18 30.68) rotate(-79.9)"/><path class="cls-58" d="M15.63,2.5c0,.3.4.6,1.2.8l.2-.4.5-.8C16.43,2.1,15.63,2.2,15.63,2.5Z"/><path class="cls-59" d="M15.93,3.2l-.7.8-.7,1.2v.7a7.89,7.89,0,0,0,1-1.3A6.84,6.84,0,0,0,16,3.3Z"/><path class="cls-60" d="M15.63,5.9l-1.5,2.2H14v.7l1.6-2.2a20.2,20.2,0,0,0,1.6-3.1h0Z"/><path class="cls-61" d="M13.43,11.6a26.7,26.7,0,0,0,2-2.5,34.4,34.4,0,0,0,2.4-3.7,13.36,13.36,0,0,0,.7-1.6h0l-2,3A41.15,41.15,0,0,1,14,10.3l-.5.6Z"/><path class="cls-62" d="M12.93,14.3a32.18,32.18,0,0,0,2.7-2.9c1.1-1.5,4.3-7.5,4.3-7.6h0l-2.7,4.3A35.25,35.25,0,0,1,14,12.3l-.9,1Z"/><path class="cls-63" d="M12.73,15.6l-.2,1.3a41.77,41.77,0,0,0,3.8-4.4A49.78,49.78,0,0,0,20,6.4a64.58,64.58,0,0,1-4.3,6.2A30.34,30.34,0,0,1,12.73,15.6Z"/><path class="cls-64" d="M12.23,18.1l-.2,1a25.48,25.48,0,0,0,2.9-2.9,47.89,47.89,0,0,0,4.3-6.1s-1.7,2.3-4.1,5A32.84,32.84,0,0,1,12.23,18.1Z"/><path class="cls-65" d="M12.63,19.8l.6.3,2.3-2.3a26.19,26.19,0,0,0,3.3-4.4s-1.3,1.6-3.7,4.1Z"/><path class="cls-66" d="M15.33,19.3l-1.2,1h.7a25,25,0,0,0,3.4-4.2Z"/><path class="cls-67" d="M16,20.5h.6a7,7,0,0,0,1.1-1.6Z"/><path class="cls-68" d="M16.33,20.6c-.1.1.3.3.7-.1l.6-.6.2-.9A12,12,0,0,0,16.33,20.6Z"/><path class="cls-69" d="M17.83,16.8c-1,1.3-2.3,2.5-3.3,3.6H15a31.83,31.83,0,0,0,3-3.3l.2-.9Z"/><path class="cls-70" d="M17,15.7a51,51,0,0,1-3.6,3.9L13,20c-.1,0,.1.1.2.2h.3a51.57,51.57,0,0,0,3.9-4.2l1.2-1.6.2-1Z"/><path class="cls-71" d="M16.23,14.5a51,51,0,0,1-3.6,3.9l-.4.4v.4a.19.19,0,0,0,0,.27l.05,0a53.05,53.05,0,0,0,4.4-4.6,42.27,42.27,0,0,0,2.6-3.5l.2-1.2A39.22,39.22,0,0,1,16.23,14.5Z"/><path class="cls-72" d="M15.43,13.4c-.9,1.1-1.9,2.2-2.8,3.1v.8q1.74-1.73,3.3-3.6a41.34,41.34,0,0,0,4-5.9L20,6.4A42.27,42.27,0,0,1,15.43,13.4Z"/><path class="cls-73" d="M19.93,3.8l-.5.9a43.18,43.18,0,0,1-4.9,7.5L12.93,14v.8L15,12.4a43.4,43.4,0,0,0,4.9-7.6l.6-1.1V3.4h0C20.43,3.7,20.33,3.9,19.93,3.8Z"/><path class="cls-74" d="M13.73,11.1l-.3.4-.2.9.9-1A43.18,43.18,0,0,0,19,3.9h-.5A42.36,42.36,0,0,1,13.73,11.1Z"/><path class="cls-75" d="M17.33,3.8h-.2a40.36,40.36,0,0,1-3.2,5l-.2,1a41.25,41.25,0,0,0,3.9-5.9Z"/><path class="cls-76" d="M14.43,5.6l-.2,1.1a37,37,0,0,0,2.1-3.3H16l-.1-.2Z"/><path class="cls-77" d="M15,2.4l-.2,1,.4-.6A.3.3,0,0,1,15,2.43,0,0,0,0,1,15,2.4Z"/><path class="cls-78" d="M16.63,2.2c-.6,0-1,.1-1,.4s.3.4.8.7Z"/><path class="cls-79" d="M30,4.7c2.5,1,3.2-.6,3.4-1s-.9-1.2-2.3-1.8-2.7-.7-2.9-.3S27.83,3.8,30,4.7Z"/><ellipse class="cls-80" cx="30.85" cy="2.67" rx="0.6" ry="2.2" transform="translate(17.15 30.45) rotate(-68.7)"/><path class="cls-81" d="M32.83,3.9h-.9c-.2.2-.5.1-.5-.1l-.8-.3c-.1.1-.5,0-.4-.2l-.7-.4c-.2.1-.5-.1-.4-.2l-.6-.5c-.2.1-.2-.1-.1-.4l-6.3,15.6,5.2,2h0l6.1-15.8h0C33.33,3.9,33,4.3,32.83,3.9Z"/><ellipse class="cls-82" cx="24.66" cy="18.4" rx="0.8" ry="2.8" transform="translate(-1.44 34.69) rotate(-68.7)"/><path class="cls-83" d="M28.83,1.8c-.1.2.3.7,1,1l.2-.3.6-.6C29.73,1.6,28.93,1.5,28.83,1.8Z"/><path class="cls-84" d="M29,2.6l-.8.7-.9,1-.3.6,1.2-1.1A7.37,7.37,0,0,0,29,2.6Z"/><path class="cls-85" d="M28.13,5.2l-1.9,1.7h-.1l-.3.7,2-1.8a20.27,20.27,0,0,0,2.3-2.6h0Z"/><path class="cls-86" d="M24.83,10.3a26.7,26.7,0,0,0,2.5-2,36,36,0,0,0,3.1-3.2,17,17,0,0,0,1-1.4h0l-2.5,2.5-3.2,2.9-.6.4Z"/><path class="cls-87" d="M23.93,12.8a32.77,32.77,0,0,0,3.2-2.3c1.4-1.2,5.7-6.6,5.7-6.6h0l-3.5,3.7a36,36,0,0,1-3.9,3.5l-1.1.8Z"/><path class="cls-88" d="M23.43,14.1l-.5,1.2a43.13,43.13,0,0,0,4.6-3.6,51.33,51.33,0,0,0,4.8-5.2,66.3,66.3,0,0,1-5.4,5.2A29.7,29.7,0,0,1,23.43,14.1Z"/><path class="cls-89" d="M22.53,16.4l-.4,1a38.74,38.74,0,0,0,3.5-2.3A46.49,46.49,0,0,0,31,10a53.75,53.75,0,0,1-5,4.1A32.47,32.47,0,0,1,22.53,16.4Z"/><path class="cls-90" d="M22.53,18.1l.5.4,2.7-1.8a26.68,26.68,0,0,0,4.1-3.7l-4.4,3.3Z"/><path class="cls-91" d="M25.23,18.2l-1.4.8.5.2h.2a24.69,24.69,0,0,0,4.1-3.4Z"/><path class="cls-92" d="M25.73,19.5h.6a7.5,7.5,0,0,0,1.4-1.3Z"/><path class="cls-93" d="M26,19.6c-.1.1.3.3.7,0l.7-.5.3-.8A12.54,12.54,0,0,0,26,19.6Z"/><path class="cls-94" d="M28.13,16.3c-1.3,1-2.7,2.1-3.9,2.9l.2.2h.3c1.1-.8,2.4-1.7,3.6-2.6l.3-.9Z"/><path class="cls-95" d="M27.63,15a51.52,51.52,0,0,1-4.3,3.2l-.4.3c-.1,0,0,.1.1.2h.3a53.47,53.47,0,0,0,4.6-3.3l1.5-1.3.4-1Z"/><path class="cls-96" d="M27,13.7a51.52,51.52,0,0,1-4.3,3.2l-.5.3v.3a.29.29,0,0,0,.1.3,55.66,55.66,0,0,0,5.2-3.7q1.66-1.37,3.2-2.9L31,10A40,40,0,0,1,27,13.7Z"/><path class="cls-97" d="M26.43,12.4,23,14.9l-.3.8q2.07-1.35,4-2.9a40.83,40.83,0,0,0,5.1-5l.5-1.3A42.18,42.18,0,0,1,26.43,12.4Z"/><path class="cls-98" d="M32.83,3.9l-.6.8a42.83,42.83,0,0,1-6.3,6.4L24,12.6l-.3.8,2.5-1.9A43.52,43.52,0,0,0,32.53,5l.8-1V3.6h0a.4.4,0,0,1-.48.3Z"/><path class="cls-99" d="M25.33,9.8l-.4.3-.3.8,1-.8a42.83,42.83,0,0,0,6.3-6.4h-.3l-.2-.2A42.26,42.26,0,0,1,25.33,9.8Z"/><path class="cls-100" d="M30.33,3.4l-.2-.2a41.59,41.59,0,0,1-4.2,4.3l-.4.9a40.72,40.72,0,0,0,5-5Z"/><path class="cls-101" d="M27.13,4.6l-.4,1,2.7-2.8h-.2V2.6Z"/><path class="cls-102" d="M28.23,1.6l-.4,1,.5-.5a.3.3,0,0,1-.18-.39A.28.28,0,0,1,28.23,1.6Z"/><path class="cls-103" d="M29.83,1.7c-.6-.1-1,0-1,.2s.2.5.6.8Z"/><path class="cls-104" d="M25.13,8.1C27.83,8.2,28,6.5,28,6s-1.2-.9-2.7-1-2.8.2-2.8.7A2.38,2.38,0,0,0,25.13,8.1Z"/><ellipse class="cls-105" cx="25.2" cy="5.92" rx="0.6" ry="2.2" transform="translate(18.01 30.78) rotate(-87.1)"/><path class="cls-106" d="M27.53,6.5l-.9.2c-.1.2-.4.3-.5,0h-.9a.28.28,0,0,1-.5,0h-.8a.32.32,0,0,1-.5-.1l-.7-.4c-.2.2-.3-.1-.2-.4l-.8,17,5.6.3h0l.8-17h0C28,6.4,27.83,6.8,27.53,6.5Z"/><ellipse class="cls-107" cx="24.39" cy="22.94" rx="0.8" ry="2.8" transform="translate(0.29 46.18) rotate(-87.2)"/><path class="cls-108" d="M23,5.8c0,.3.5.5,1.3.7V6.1a3.33,3.33,0,0,1,.4-.8C23.83,5.3,23,5.5,23,5.8Z"/><path class="cls-109" d="M23.43,6.5l-.5.9c-.2.3-.4.9-.6,1.2v.7a8.44,8.44,0,0,0,.8-1.4A6.86,6.86,0,0,0,23.43,6.5Z"/><path class="cls-110" d="M23.53,9.2l-1.3,2.3h-.1v.7c.4-.6.9-1.5,1.4-2.4a20.2,20.2,0,0,0,1.2-3.2h0Z"/><path class="cls-111" d="M22,15.1a27.16,27.16,0,0,0,1.7-2.7,34.83,34.83,0,0,0,1.9-4,15,15,0,0,0,.5-1.7h0L24.53,10c-.61,1.26-1.27,2.5-2,3.7l-.4.6Z"/><path class="cls-112" d="M21.93,17.8a31.18,31.18,0,0,0,2.3-3.2c.9-1.6,3.3-8,3.3-8.1h0l-2.2,4.7a37.27,37.27,0,0,1-2.6,4.5l-.8,1.1Z"/><path class="cls-113" d="M21.83,19.2v1.3A42.47,42.47,0,0,0,25,15.6a50.31,50.31,0,0,0,2.9-6.5,67.65,67.65,0,0,1-3.5,6.7A29.41,29.41,0,0,1,21.83,19.2Z"/><path class="cls-114" d="M21.73,21.7v1.1c.5-.6,1.5-1.7,2.6-3.2a46.79,46.79,0,0,0,3.5-6.6s-1.4,2.5-3.4,5.5A32.87,32.87,0,0,1,21.73,21.7Z"/><path class="cls-115" d="M22.23,23.3l.6.2c.4-.5,1.2-1.4,2-2.5a26.62,26.62,0,0,0,2.7-4.8s-1.1,1.8-3.1,4.5Z"/><path class="cls-116" d="M24.83,22.5l-1,1.2h.8a25.12,25.12,0,0,0,2.8-4.6Z"/><path class="cls-117" d="M25.73,23.6h.6a7.49,7.49,0,0,0,.9-1.7A22,22,0,0,1,25.73,23.6Z"/><path class="cls-118" d="M26.13,23.6c-.1.1.4.2.7-.2l.5-.7v-.9A12.81,12.81,0,0,0,26.13,23.6Z"/><path class="cls-119" d="M27,19.7c-.9,1.4-1.9,2.8-2.8,4h.6c.8-1.1,1.8-2.4,2.6-3.6v-1Z"/><path class="cls-120" d="M26.13,18.7A49.77,49.77,0,0,1,23,23.1l-.3.4.2.2h.3a53.47,53.47,0,0,0,3.3-4.6l1-1.7V16.2Z"/><path class="cls-121" d="M25.13,17.6A52,52,0,0,1,22,22l-.4.5v.3a.29.29,0,0,0,.1.3,55.66,55.66,0,0,0,3.7-5.2c.76-1.23,1.46-2.5,2.1-3.8V12.9A40.73,40.73,0,0,1,25.13,17.6Z"/><path class="cls-122" d="M24.23,16.6c-.7,1.2-1.6,2.4-2.4,3.5v.8c1-1.28,2-2.62,2.9-4a40.09,40.09,0,0,0,3.2-6.3V9.1A42.14,42.14,0,0,1,24.23,16.6Z"/><path class="cls-123" d="M27.53,6.5l-.3.9a42.83,42.83,0,0,1-3.9,8.1l-1.4,2v.8l1.8-2.6a43.08,43.08,0,0,0,3.9-8.2L28,6.4V6.1h0C28,6.4,27.93,6.6,27.53,6.5Z"/><path class="cls-124" d="M22.33,14.5l-.3.4v.9l.7-1.1a43.52,43.52,0,0,0,3.9-8h-.5A42,42,0,0,1,22.33,14.5Z"/><path class="cls-125" d="M24.93,6.8h-.2a40.6,40.6,0,0,1-2.6,5.4v1a41,41,0,0,0,3.1-6.4Z"/><path class="cls-126" d="M22.33,9v1.1c.6-1.2,1.1-2.3,1.7-3.6h-.5Z"/><path class="cls-127" d="M22.43,5.8v1l.3-.7A.27.27,0,0,1,22.43,5.8Z"/><path class="cls-128" d="M24,5.4c-.6.1-.9.3-.9.5s.3.4.8.6Z"/><path class="cls-129" d="M19.53,12.2c2.5-.8,2.1-2.5,2-2.9s-1.4-.4-2.9.1-2.5,1.2-2.4,1.6S17.23,13,19.53,12.2Z"/><ellipse class="cls-130" cx="18.85" cy="10.11" rx="2.2" ry="0.6" transform="translate(-2.18 6.21) rotate(-17.7)"/><path class="cls-131" d="M21.13,9.9l-.8.5a.3.3,0,0,1-.5.2l-.8.3c0,.2-.3.3-.5.1l-.8.2a.35.35,0,0,1-.5.1h-.8c-.1.3-.3,0-.4-.3l5.2,16.2,5.3-1.7h0l-5-16.2h0C21.53,9.5,21.53,10,21.13,9.9Z"/><ellipse class="cls-132" cx="24.03" cy="26.26" rx="2.8" ry="0.8" transform="translate(-6.85 8.55) rotate(-17.7)"/><path class="cls-133" d="M16.73,10.8c.1.3.7.3,1.4.2v-.4a3.36,3.36,0,0,1,.1-.9C17.23,10,16.63,10.5,16.73,10.8Z"/><path class="cls-134" d="M17.33,11.3a4.07,4.07,0,0,0-.2,1,5.28,5.28,0,0,1-.1,1.3l.2.7a7.29,7.29,0,0,0,.3-1.6A7.27,7.27,0,0,0,17.33,11.3Z"/><path class="cls-135" d="M18.33,13.8c-.1.9-.3,2.1-.4,2.6h0l.2.7c.1-.7.3-1.7.4-2.7a20.45,20.45,0,0,0,0-3.5h0S18.43,12.9,18.33,13.8Z"/><path class="cls-136" d="M19,19.9a25,25,0,0,0,.6-3.2,34.26,34.26,0,0,0,.4-4.4,13.73,13.73,0,0,0-.1-1.7h0s-.2,2.1-.3,3.6S19.3,17,19,18.4l-.2.7Z"/><path class="cls-137" d="M19.83,22.4a31.73,31.73,0,0,0,1-3.8c.3-1.8.3-8.7.3-8.7h0s-.3,3.8-.4,5.1a36.49,36.49,0,0,1-.8,5.2l-.4,1.3Z"/><path class="cls-138" d="M20.23,23.7l.4,1.2a42.75,42.75,0,0,0,1.3-5.7,49.64,49.64,0,0,0,.4-7.1,65.84,65.84,0,0,1-.9,7.4A27.94,27.94,0,0,1,20.23,23.7Z"/><path class="cls-139" d="M21,26.1l.3,1a34.21,34.21,0,0,0,1.3-3.9,46.19,46.19,0,0,0,1-7.4s-.4,2.8-1.3,6.4A31.84,31.84,0,0,1,21,26.1Z"/><path class="cls-140" d="M22.13,27.4h.6c.2-.6.6-1.7,1-3.1a26.84,26.84,0,0,0,.9-5.4s-.4,2-1.4,5.3C22.83,25.3,22.33,26.8,22.13,27.4Z"/><path class="cls-141" d="M24.23,25.8l-.5,1.4.6-.2h.2a25.17,25.17,0,0,0,1-5.3S24.63,24.7,24.23,25.8Z"/><path class="cls-142" d="M25.43,26.4v.2l.6-.4a7.14,7.14,0,0,0,.2-1.9C26,25,25.73,25.71,25.43,26.4Z"/><path class="cls-143" d="M25.83,26.4c0,.1.4.1.6-.4l.2-.8-.3-.8A12.45,12.45,0,0,0,25.83,26.4Z"/><path class="cls-144" d="M25.33,22.4c-.3,1.6-.8,3.3-1.2,4.7h.2l.3-.2c.4-1.3.8-2.8,1.1-4.3l-.3-.9Z"/><path class="cls-145" d="M24,21.8a52.51,52.51,0,0,1-1.4,5.2l-.2.5H23a52.6,52.6,0,0,0,1.5-5.5l.3-1.9-.3-1A20,20,0,0,1,24,21.8Z"/><path class="cls-146" d="M22.83,21.1a49.24,49.24,0,0,1-1.4,5.2l-.2.6v.3a.22.22,0,0,0,.2.2,55.62,55.62,0,0,0,1.8-6.2c.27-1.42.47-2.86.6-4.3l-.4-1.2A40.92,40.92,0,0,1,22.83,21.1Z"/><path class="cls-147" d="M21.53,20.5c-.3,1.4-.7,2.8-1.1,4.1l.2.8A47.82,47.82,0,0,0,22,20.6a40.42,40.42,0,0,0,.8-7.1l-.4-1.4A41.62,41.62,0,0,1,21.53,20.5Z"/><path class="cls-148" d="M21.13,9.9v1a42.24,42.24,0,0,1-.8,8.9,21,21,0,0,1-.6,2.4l.3.8c.3-1,.5-2.1.8-3.1a43.18,43.18,0,0,0,.8-9V9.3h0C21.53,9.6,21.53,9.8,21.13,9.9Z"/><path class="cls-149" d="M19,19.2v.5l.3.9.3-1.3a42.91,42.91,0,0,0,.8-8.9l-.2.2h-.3A42.14,42.14,0,0,1,19,19.2Z"/><path class="cls-150" d="M18.83,11.1h-.2a41.63,41.63,0,0,1-.5,6l.3.9a41.11,41.11,0,0,0,.7-7Z"/><path class="cls-151" d="M17.13,14l.3,1.1a25.61,25.61,0,0,0,.3-3.9h-.5A12.89,12.89,0,0,1,17.13,14Z"/><path class="cls-152" d="M16.23,11l.3,1v-.8A.31.31,0,0,1,16.23,11Z"/><path class="cls-153" d="M17.43,10c-.5.3-.8.6-.7.8s.4.3,1,.2Z"/><path class="cls-154" d="M21.23,6.4c2.4-1.1,1.8-2.8,1.6-3.2s-1.5-.2-2.9.4-2.4,1.6-2.2,2S19,7.4,21.23,6.4Z"/><ellipse class="cls-155" cx="20.22" cy="4.4" rx="2.2" ry="0.6" transform="translate(0.03 8.92) rotate(-24.9)"/><path class="cls-156" d="M22.53,3.9l-.7.6c0,.2-.2.4-.4.3l-.8.4c0,.2-.3.4-.4.2l-.8.3c-.1.2-.4.3-.5.1h-.8c-.1.3-.3.1-.4-.2L24.93,21l5-2.3h0L22.83,3.2h0C22.93,3.5,22.93,4,22.53,3.9Z"/><ellipse class="cls-157" cx="27.43" cy="19.84" rx="2.8" ry="0.8" transform="translate(-5.8 13.39) rotate(-24.9)"/><path class="cls-158" d="M18.23,5.3c.1.2.7.2,1.4,0V4.9a3.39,3.39,0,0,1,0-.9C18.73,4.5,18.13,5,18.23,5.3Z"/><path class="cls-159" d="M18.93,5.7a10.42,10.42,0,0,0-.1,1.1,5.63,5.63,0,0,1,0,1.3l.3.6a7.82,7.82,0,0,0,.1-1.6,6.79,6.79,0,0,0-.4-1.4Z"/><path class="cls-160" d="M20.23,8.1v2.6h0l.3.7a21.79,21.79,0,0,0,.1-2.7,19.36,19.36,0,0,0-.4-3.4h0Z"/><path class="cls-161" d="M21.73,14a26.31,26.31,0,0,0,.2-3.2,34,34,0,0,0-.2-4.4,13.57,13.57,0,0,0-.4-1.7h0s.1,2.1.1,3.6a41.15,41.15,0,0,1-.1,4.3v.7Z"/><path class="cls-162" d="M22.83,16.5a30.14,30.14,0,0,0,.5-3.9c.1-1.9-.8-8.6-.8-8.7h0s.2,3.8.3,5.1a36.18,36.18,0,0,1-.2,5.2c-.1.6-.2,1.1-.2,1.3Z"/><path class="cls-163" d="M23.43,17.7l.5,1.2a43.53,43.53,0,0,0,.6-5.8A49.5,49.5,0,0,0,24,5.9a67,67,0,0,1,0,7.5A28.52,28.52,0,0,1,23.43,17.7Z"/><path class="cls-164" d="M24.43,20l.4,1c.2-.8.5-2.2.8-4.1a47,47,0,0,0,0-7.5,52.66,52.66,0,0,1-.5,6.5A31.64,31.64,0,0,1,24.43,20Z"/><path class="cls-165" d="M25.73,21.2h.6c.1-.6.4-1.8.6-3.2a26.63,26.63,0,0,0,.2-5.5s-.2,2.1-.7,5.4C26.23,19,25.83,20.5,25.73,21.2Z"/><path class="cls-166" d="M27.63,19.2a7.54,7.54,0,0,1-.4,1.5l.5-.2h.2a25.06,25.06,0,0,0,.4-5.4S27.83,18.1,27.63,19.2Z"/><path class="cls-167" d="M28.93,19.8V20l.7-.5a6.72,6.72,0,0,0,0-1.9C29.43,18.34,29.2,19.08,28.93,19.8Z"/><path class="cls-168" d="M29.23,19.7c0,.1.4,0,.5-.5v-.8l-.4-.8A12.27,12.27,0,0,0,29.23,19.7Z"/><path class="cls-169" d="M28.23,15.8c-.1,1.6-.4,3.4-.6,4.8h.2l.3-.2c.2-1.3.5-2.9.6-4.4l-.4-.9Z"/><path class="cls-170" d="M26.93,15.3a49.92,49.92,0,0,1-.7,5.3v.5h.2l.3-.2a52.44,52.44,0,0,0,.8-5.7c0-.7.1-1.4.1-2l-.4-1C27,13.3,27,14.2,26.93,15.3Z"/><path class="cls-171" d="M25.63,14.8a49.92,49.92,0,0,1-.7,5.3v.8l.3.2a55.87,55.87,0,0,0,.9-6.3,43.15,43.15,0,0,0,.1-4.4l-.5-1.1A40.4,40.4,0,0,1,25.63,14.8Z"/><path class="cls-172" d="M24.33,14.3c-.1,1.4-.3,2.9-.5,4.2l.3.7c.28-1.62.48-3.26.6-4.9a40.09,40.09,0,0,0-.1-7.1L24,5.9A42.11,42.11,0,0,1,24.33,14.3Z"/><path class="cls-173" d="M22.53,3.9v1a42.33,42.33,0,0,1,.3,9,19.67,19.67,0,0,1-.3,2.4l.4.8a31.06,31.06,0,0,0,.4-3.2A43.25,43.25,0,0,0,23,4.8l-.2-1.3V3.2h0a.4.4,0,0,1-.3.7Z"/><path class="cls-174" d="M21.63,13.4v.5l.4.8c0-.4.1-.9.1-1.3a42.73,42.73,0,0,0-.3-8.9.33.33,0,0,1-.2.2h-.3A42.17,42.17,0,0,1,21.63,13.4Z"/><path class="cls-175" d="M20.43,5.3h-.2a41.46,41.46,0,0,1,.2,6l.4.9a41.05,41.05,0,0,0-.2-7.1A.22.22,0,0,1,20.43,5.3Z"/><path class="cls-176" d="M19.13,8.5l.5,1c0-1.3-.1-2.6-.2-3.9h-.5C19,6.7,19.13,7.6,19.13,8.5Z"/><path class="cls-177" d="M17.73,5.6l.4.9V5.8a.3.3,0,0,1-.39-.17A0,0,0,0,1,17.73,5.6Z"/><path class="cls-178" d="M18.93,4.5c-.5.3-.7.7-.6.9s.5.2,1,.1Z"/><path class="cls-179" d="M31,12s-4.7,4.8-15.2,4.5c-2.9-.1-5.3.3-6.9-.1-4.1-1.2-5.1-2.1-5.1-2.1a32.55,32.55,0,0,1,3.5,15l2,6.2a16.76,16.76,0,0,0,7,3s11,1.8,15.8-3.2c0,0,2.3-2.9,2.4-5.5a99.83,99.83,0,0,1-2.7-10C31.43,17,31,12,31,12Z"/><path class="cls-180" d="M30.83,12.1A24.73,24.73,0,0,1,23,15.7c-4.3,1-13.2.7-13.2.7a32.74,32.74,0,0,1-6.2-2l.4.8,4.4,1.6,3.1.4,2.7.2a54.73,54.73,0,0,0,9.3-.7,23.68,23.68,0,0,0,6.1-2.2l1.2-1.7Z"/><path class="cls-181" d="M30.83,12.1s-4.7,4.8-15.2,4.5c-2.9-.1-5.3.3-6.9-.1-4.1-1.3-5.1-2.1-5.1-2.1l.7,1.5A14.62,14.62,0,0,0,10,18.3s7.9.9,11.5.4,8.5-2.9,9.4-4.9h0Z"/><path class="cls-182" d="M9.83,16.7l-1.1-.2c-4.1-1.3-5.1-2.1-5.1-2.1a32.59,32.59,0,0,1,3.6,14.9l2,6.2C11.63,28.1,9.83,16.7,9.83,16.7Z"/><path class="cls-183" d="M9.83,16.7l-1.1-.2c-4.1-1.3-5.1-2.1-5.1-2.1l.7,1.5A14.62,14.62,0,0,0,10,18.3C9.93,17.3,9.83,16.7,9.83,16.7Z"/><path class="cls-184" d="M8.63,16.4c-4-1.2-5-2-5-2l.7,1.5A16.51,16.51,0,0,0,8.83,18Z"/><path class="cls-185" d="M7.53,16.1a13.56,13.56,0,0,1-3.9-1.7l.7,1.5a17.54,17.54,0,0,0,3.5,1.8Z"/><path class="cls-186" d="M30.83,17.3s.6,6.1,1.5,8.4a42.19,42.19,0,0,1,1.5,4.8,14.71,14.71,0,0,1-1.7,3.9,5.16,5.16,0,0,1-2.2,1.8s2.4-2.6,2-5-1.3-5.4-1.7-6.9S29,18.5,29,18.5l1.7-1.8Z"/><path class="cls-187" d="M30.83,17.3s.6,6.1,1.5,8.4a42.19,42.19,0,0,1,1.5,4.8,17.4,17.4,0,0,1-.8,2.3,8.53,8.53,0,0,0,.3-1.1c.2-1-.5-2.6-1.2-5.2s-1.6-7.9-1.8-9.1l.5-.5Z"/><g class="cls-188"><path class="cls-189" d="M12,30.7l.2-.3c.1-.2.1-.4.2-.3h.1l.2-.3a7.3,7.3,0,0,0-.6,1.1c.1,0,.4-.5.3-.3s-.3.6-.4.6h-.2c0-.1.1-.3,0-.3l-.3.2Z"/><path class="cls-189" d="M16.63,25.6a4.33,4.33,0,0,1-.1-.5l.2-.4a3.84,3.84,0,0,1,.2-.6l.2-.4v.5l-.2.5v.4C16.63,25.2,16.63,25.6,16.63,25.6Z"/><path class="cls-189" d="M13.93,28.6a.1.1,0,0,1-.1-.1v-.2H14v.2Z"/><path class="cls-190" d="M13.83,28.5v-.2H14v-.2h0v-.3h.1v.4h0a.67.67,0,0,0,0,.2h0l-.2.3h-.1a.09.09,0,0,1,0-.1Zm.2-.3v.2h0v-.2Z"/><path class="cls-189" d="M14.43,27.3v-.4c.1-.2.2-.7.2-.5a.82.82,0,0,1-.1.4Z"/><path class="cls-189" d="M15.73,25H16a.35.35,0,0,0,.1-.2h-.4Z"/><path class="cls-189" d="M15.23,27l.2-.3.3-.6.2-.2c-.1.2,0,.1-.1.3l-.3.5Z"/><path class="cls-189" d="M13.63,19.6a4.33,4.33,0,0,1-.1-.5l.2-.4a2.49,2.49,0,0,1,.2-.6l.2-.4v.5l-.2.5v.4A5.09,5.09,0,0,1,13.63,19.6Z"/><path class="cls-189" d="M14,18.9a.31.31,0,0,1,.1-.2l.2-.4.2-.4.3-.4h.1s.1,0,0,.2l-.2.4-.3.3Z"/><path class="cls-189" d="M13,18.9h-.1v-.2H13Z"/><path class="cls-190" d="M12.93,18.8h.2v-.6h0V18h0v.4h0v.2h0l-.2.3h-.1Zm.2-.3v.2h.1v-.2h.1v.2Z"/><path class="cls-189" d="M14.33,17.2l.2-.3.3-.6v-.2c0,.1,0,0-.1.3l-.3.5Z"/><path class="cls-189" d="M10.43,22.4h0Z"/><path class="cls-189" d="M11.43,20.8v-.3s0-.1.1.1v.2a.67.67,0,0,1,0,.2h-.1Z"/><path class="cls-189" d="M10.83,22h0Z"/><path class="cls-189" d="M10.63,22.1h-.2s0-.2.1-.1h.1v.2h-.1Z"/><path class="cls-189" d="M14.83,21.7a.42.42,0,0,1-.1-.2v-.4s.1-.1.1.1a1.5,1.5,0,0,0,0,.3v.2Z"/><path class="cls-189" d="M14.73,20.6v-.4s-.1-.2,0-.3.2-.1.2,0a.76.76,0,0,1,0,.3c0,.1-.1.6-.1.6Z"/><path class="cls-189" d="M15.43,24.8s.1-.2.2-.1,0,.2,0,.3.2,0,.1.1l-.2.2h-.2A2.77,2.77,0,0,1,15.43,24.8Z"/><path class="cls-189" d="M15.83,26.4h-.1v-.3c0-.3-.1-.6.1-.4v.7Z"/><path class="cls-189" d="M19.13,19.2s-.1-.2.2.1.4.5.4.3a.76.76,0,0,0,0-.3c0-.2-.1-.2-.2-.2h-.3Z"/><path class="cls-189" d="M19.23,20.7s0,.5.2.5.3.1.3-.1-.1-.5-.2-.4Z"/></g><g class="cls-191"><path class="cls-192" d="M4.33,15.8h.3c.2,0,.4-.1.3.1H3.83c0-.1-.2-.1-.1-.2h.2l-.3-.2Z"/><path class="cls-192" d="M10.93,17.7l.4-.3h-.4Z"/><path class="cls-192" d="M7.13,16.6s-.1-.1.1-.1h-.1Z"/><path class="cls-193" d="M7.13,16.4H7s-.1-.1,0-.1h.1Z"/><path class="cls-192" d="M11,16.7v.2l.2.2h.2a.12.12,0,0,0,.05-.15.11.11,0,0,0-.15-.05Z"/><path class="cls-192" d="M15,12.5l.4-.3H15Z"/><path class="cls-192" d="M15.93,12.5h1.7s.1.1-.2.1h-1.5Z"/><path class="cls-192" d="M15.53,11.6v-.1h0Z"/><path class="cls-192" d="M11.13,10.8l.2.2c0,.1-.1.1-.1.2v.1l-.2-.2h0Z"/><path class="cls-192" d="M13,11h.3c.1,0,.1,0,0,.1H13Z"/><path class="cls-192" d="M11.53,10.8v-.2h.2v.2h-.1c.1,0,0,.1,0,.1Z"/><path class="cls-192" d="M13.73,14.5h.6s.2,0-.1.1l-.3.2h-.2Z"/><path class="cls-192" d="M14.63,13.9l.4-.2s.2-.2.3-.1.2.1.1.1h-.2Z"/><path class="cls-192" d="M11.13,16.4s.3,0,.2.1l-.2.2c0,.1.1.2-.1.1h-.3Z"/><path class="cls-192" d="M9.93,17.3h.3c.3-.1.5-.3.4-.1l-.2.2Z"/><path class="cls-192" d="M17.73,17.3s.1-.1,0,.2-.3.5-.1.5h.3c.1-.1.2-.1.1-.3v-.5Z"/><path class="cls-192" d="M16.53,18s-.4.2-.4.4,0,.4.3.2.4-.3.3-.4Z"/></g><path d="M31.13,26.4V11.6h2.7a7.4,7.4,0,0,1,7.4,7.4h0a7.41,7.41,0,0,1-7.4,7.4h-2.7Zm2.3-12.6V24.2h.5a5.2,5.2,0,0,0-.1-10.4h-.4Z"/><path d="M45.23,24.4l-.8,2.1H42l6-15.6,6,15.6h-2.4l-.8-2.1Zm.9-2.3h3.8L48,17.2Z"/><path d="M56.43,11.6h2.3V24.2h5.2v2.3h-7.5Z"/><path d="M102.43,19a7.24,7.24,0,0,1-.6,2.9,7.76,7.76,0,0,1-1.6,2.4,8.06,8.06,0,0,1-2.4,1.6,7.8,7.8,0,0,1-6,0,7.94,7.94,0,0,1-2.4-1.6,7.42,7.42,0,0,1-1.6-2.4,7.31,7.31,0,0,1,0-5.8,7.22,7.22,0,0,1,1.6-2.4,7.76,7.76,0,0,1,2.4-1.6,7.71,7.71,0,0,1,8.4,1.6,7.37,7.37,0,0,1,1.6,2.4A7.21,7.21,0,0,1,102.43,19Zm-12.9,0A5.09,5.09,0,0,0,91,22.6a5.34,5.34,0,0,0,7.4,0,5.5,5.5,0,0,0,1.1-1.6,5.3,5.3,0,0,0,0-4.1,5.37,5.37,0,0,0-1.1-1.6,5,5,0,0,0-1.7-1.1,5.39,5.39,0,0,0-4.1,0,5.08,5.08,0,0,0-3.2,4.8Z"/><path d="M110.93,22l2.1,4.4h-2.4L109,23l-1.7.2h-.2v3.2h-2.3v-15h2.4a5.9,5.9,0,0,1,5.9,5.9h0a5.72,5.72,0,0,1-1.7,4.2Zm-3.8-1h.2a3.7,3.7,0,1,0,0-7.4h-.2Z"/><path d="M130.93,19a7.24,7.24,0,0,1-.6,2.9,7.76,7.76,0,0,1-1.6,2.4,8.06,8.06,0,0,1-2.4,1.6,7.8,7.8,0,0,1-6,0,7.94,7.94,0,0,1-2.4-1.6,7.42,7.42,0,0,1-1.6-2.4,7.31,7.31,0,0,1,0-5.8,7.22,7.22,0,0,1,1.6-2.4,7.76,7.76,0,0,1,2.4-1.6,7.71,7.71,0,0,1,8.4,1.6,7.37,7.37,0,0,1,1.6,2.4A7.21,7.21,0,0,1,130.93,19ZM118,19a5.14,5.14,0,0,0,.4,2,5.2,5.2,0,1,0,8.5-5.7,5,5,0,0,0-1.7-1.1,5.39,5.39,0,0,0-4.1,0,5.06,5.06,0,0,0-2.8,2.7A5,5,0,0,0,118,19Z"/><path d="M134.53,9.9h2.1v.3l-2.1,5.1h-1.2V15Z"/><path d="M142.33,26.5l-1.7-.2a5.73,5.73,0,0,1-1.6-.9V22.6l.8.8.7.4.9.4,1,.2a2.12,2.12,0,0,0,1.6-.7,2.31,2.31,0,0,0,.6-1.6,1.61,1.61,0,0,0-.5-1.3l-1.8-1.1L141,19l-1-.8a3.74,3.74,0,0,1-.8-1.1,3.56,3.56,0,0,1-.3-1.5,3.68,3.68,0,0,1,.4-1.6,4,4,0,0,1,1-1.3,4.69,4.69,0,0,1,1.5-.9,4.91,4.91,0,0,1,1.7-.3l1.2.2,1.3.6v2.3l-.6-.3-.4-.2-.7-.3h-.8a2.36,2.36,0,0,0-1.6.6,1.78,1.78,0,0,0-.7,1.4,1.51,1.51,0,0,0,.6,1.2l1.7,1,1.3.7,1,.8a3.37,3.37,0,0,1,.8,1.2,4.48,4.48,0,0,1,.3,1.7,4.16,4.16,0,0,1-.4,1.7,4.6,4.6,0,0,1-1,1.4,5.18,5.18,0,0,1-1.5,1A4.85,4.85,0,0,1,142.33,26.5Z"/><path class="cls-194" d="M45.73,30.7H49v1.1h-2.2v1.9H49v1.1h-2.2v3h-1.1Z"/><path class="cls-194" d="M53,35.7l1,2.1h-1.1l-.8-1.6h-.9v1.5h-1.1v-7h1.2a2.8,2.8,0,0,1,2,4.8Zm-1.8-.5h.1a1.75,1.75,0,0,0,0-3.5h-.1Z"/><path class="cls-194" d="M55.23,30.7h3.3v1.1h-2.2v2.6h2.2v1.1h-2.2v1.2h2.2v1.1h-3.3Z"/><path class="cls-194" d="M61.23,37.8h-.8l-.8-.4V35.9l.4.4.3.2.4.2h.5a1,1,0,0,0,.8-.3,1.14,1.14,0,0,0,.3-.8A.8.8,0,0,0,62,35l-.8-.5-.6-.3-.5-.4-.4-.5a2,2,0,0,1,.1-1.5l.5-.6.7-.4h1.4l.6.3v1.1l-.3-.2h-.9a1.07,1.07,0,0,0-.8.3.87.87,0,0,0-.3.6.69.69,0,0,0,.3.6l.8.5.6.3.5.4.4.6a2.19,2.19,0,0,1,.2.8,2,2,0,0,1-.2.8l-.5.7-.7.5Z"/><path class="cls-194" d="M69.33,37.8h-1.1V35.5h-2.5v2.3h-1.1V30.7h1.1v3.7h2.5V30.7h1.1Z"/><path class="cls-194" d="M74.83,35.8v2h-1V30.7H75a2.28,2.28,0,0,1,1.7.7,2.71,2.71,0,0,1,0,3.6,2.32,2.32,0,0,1-1.7.7Zm0-4v3H75a1.34,1.34,0,0,0,1-.4,1.61,1.61,0,0,0,0-2.2,1.3,1.3,0,0,0-1-.4Z"/><path class="cls-194" d="M78.83,36.8l-.4,1h-1.1l2.9-7.4L83,37.8h-1.2l-.4-1Zm.4-1.1H81l-.9-2.4Z"/><path class="cls-194" d="M85.73,37.8h-.8l-.8-.4V35.9l.4.4.3.2.4.2h.5a1,1,0,0,0,.8-.3,1.14,1.14,0,0,0,.3-.8.8.8,0,0,0-.3-.6l-.8-.5-.6-.3-.5-.4-.4-.5a2,2,0,0,1,.1-1.5l.5-.6.7-.4h1.4l.6.3v1.1l-.3-.2h-.9a1.07,1.07,0,0,0-.8.3.87.87,0,0,0-.3.6.69.69,0,0,0,.3.6l.8.5.6.3.5.4.4.6a2.19,2.19,0,0,1,.2.8,2,2,0,0,1-.2.8l-.5.7-.7.5Z"/><path class="cls-194" d="M88.83,30.7h4.6v1.1h-1.7v5.9h-1.1V31.8h-1.8Z"/><path class="cls-194" d="M94.53,36.8l-.4,1h-1.2l2.9-7.4,2.8,7.4h-1.1l-.4-1Zm.4-1.1h1.8l-.9-2.4Z"/><path class="cls-194" d="M103.13,30.7h4.6v1.1H106v5.9h-1.1V31.8h-1.8Z"/><path class="cls-194" d="M115.33,34.3a3.39,3.39,0,0,1-.3,1.4,3.93,3.93,0,0,1-.8,1.1,3.88,3.88,0,0,1-1.2.8l-1.4.3a3.74,3.74,0,0,1-1.4-.3,3.66,3.66,0,0,1-1.1-.8,3.57,3.57,0,0,1-.8-1.1,3.42,3.42,0,0,1,0-2.8,3.35,3.35,0,0,1,.8-1.1,3.46,3.46,0,0,1,1.2-.8l1.4-.3,1.4.3a3.57,3.57,0,0,1,1.1.8,3.5,3.5,0,0,1,.8,1.1A3.36,3.36,0,0,1,115.33,34.3Zm-6.1,0a2.32,2.32,0,0,0,.2,1,2.4,2.4,0,0,0,.5.8l.8.5,1,.2,1-.2.8-.5a2.9,2.9,0,0,0,.5-.8,2.5,2.5,0,0,0,0-1.9,2.64,2.64,0,0,0-.5-.8l-.8-.5-1-.2-1,.2-.8.5a2.76,2.76,0,0,0-.7,1.7Z"/><path class="cls-194" d="M123.83,36.7V34.8h-.7V33.7h1.7v3.8l-1.3.2a3.74,3.74,0,0,1-1.4-.3,3.66,3.66,0,0,1-1.1-.8,3.57,3.57,0,0,1-.8-1.1,3.42,3.42,0,0,1,0-2.8,3.35,3.35,0,0,1,.8-1.1,3.46,3.46,0,0,1,1.2-.8l1.4-.3,1.3.2v1.5l-.4-.2-1-.2-1,.2-.8.5a2.3,2.3,0,0,0-.5.8,2.5,2.5,0,0,0,0,1.9,2.4,2.4,0,0,0,.5.8l.8.5,1,.2Z"/><path class="cls-194" d="M133.13,34.3a3.39,3.39,0,0,1-.3,1.4,3.93,3.93,0,0,1-.8,1.1,3.88,3.88,0,0,1-1.2.8l-1.4.3a3.74,3.74,0,0,1-1.4-.3,3.66,3.66,0,0,1-1.1-.8,3.57,3.57,0,0,1-.8-1.1,3.42,3.42,0,0,1,0-2.8,3.35,3.35,0,0,1,.8-1.1,3.46,3.46,0,0,1,1.2-.8l1.4-.3,1.4.3a3.57,3.57,0,0,1,1.1.8,3.5,3.5,0,0,1,.8,1.1A3.36,3.36,0,0,1,133.13,34.3Zm-6.1,0a2.32,2.32,0,0,0,.2,1,2.4,2.4,0,0,0,.5.8l.8.5,1,.2,1-.2.8-.5a2.9,2.9,0,0,0,.5-.8,2.5,2.5,0,0,0,0-1.9,2.64,2.64,0,0,0-.5-.8l-.8-.5-1-.2-1,.2-.8.5a2.76,2.76,0,0,0-.7,1.7Z"/><path class="cls-195" d="M160.63,3.7l-.4-.2c.1-.4-1.2-1.2-1.7-.3-.3-.9-10.1,19.3-10.1,19.3l-2.3,1.7c-.6.4-.6.2-.7.8s-.4,2.6-.5,3.3a1,1,0,0,1-.3.5,1,1,0,0,0-.3.5.6.6,0,0,0,.2.6h.2l.3.2h.4a.61.61,0,0,0,.4-.4h.3s.2,0,0-.2a.58.58,0,0,1-.1-.4.7.7,0,0,0-.2-.5c-.1-.1-.2-.2-.2-.3a12.37,12.37,0,0,1,.9-2.8,3.86,3.86,0,0,1,1.6-.4s-.4,7.3-.4,7.6a1.74,1.74,0,0,1-.8,1.4c-.6.4-.6.3-.8.1a5.13,5.13,0,0,1-.8-1.4c-.2-.5-.2-1-.7-.9a3.54,3.54,0,0,0-1.7,1.3c-.4.7.1.5.5.3a2.34,2.34,0,0,1,.9-.3s.6,1.8,1.1,3,1.7.3,4.3-.9a17,17,0,0,1,6.6-1.3c.4.1.8.1.6.7s-1.1,2.8-1.4,3.6.7.5,1.7.8,1.5-.2,1.5-.5-.6-.1-1.2-.5-.3-.4-.2-.6l2.8-4.2c.4-.6.1-.7,0-.9a11.76,11.76,0,0,0-2.8-.6.53.53,0,0,1-.6-.6,26.28,26.28,0,0,1,.6-2.8l.9-3,.8,1.1c.3.3.2.4.7.3a8.49,8.49,0,0,0,2.2-1.5c.4-.3.3-.2.9-.3a1.26,1.26,0,0,0,.6-.3.31.31,0,0,0,.1-.3h-.2a.22.22,0,0,0,0-.29h-.22a.17.17,0,0,0,0-.1l-.2-.2a.39.39,0,0,0,0-.3c-.1-.1-.1,0-.1.1l-.3.2c-.2,0-.4.4-.4.4a.63.63,0,0,0-.1.3c0,.2-.3.4-.3.4a9.82,9.82,0,0,1-1.8.8,14.09,14.09,0,0,1-.7-2.6S161,4.1,160.63,3.7Z"/><path class="cls-196" d="M163.33,24.8H163a.18.18,0,0,1,0-.2h-.2a.18.18,0,0,1,0-.2h.1a.18.18,0,0,0,0,.2c.1.1.3,0,.3,0h0c-.1.1-.1.1-.1.2Z"/><path class="cls-196" d="M162.13,23.7h.1l.2-.2h.7v.4h-.2v.3h-.1v-.3h.2v-.3h-.6l-.2.2h-.1Z"/><path class="cls-196" d="M158,33.4a16.55,16.55,0,0,0-5.2.5,35.14,35.14,0,0,0-6.1,2.4c-.6.3-.8.2-1.3-.9s-.9-2.3-.9-2.3-.8-1.1-1.6.3.2.5.5.2a2.34,2.34,0,0,1,.9-.3s.6,1.8,1.1,3,1.7.3,4.3-.9a17,17,0,0,1,6.6-1.3c.4.1.8.1.6.7s-1.1,2.8-1.4,3.6.7.5,1.7.8,1.2,0,1.4-.2h-1.1a5.94,5.94,0,0,1-1.5-.4c-.3-.2.4-.9.4-1a33.73,33.73,0,0,0,1.5-3.3C158.23,33.8,158.63,33.5,158,33.4Z"/><path class="cls-196" d="M163.23,24.8h-.9l-1.3.9a5.11,5.11,0,0,1-1.4.6,1.62,1.62,0,0,1-.7-1.3,4.53,4.53,0,0,1,.5-1.8v-.6a29,29,0,0,1-.9,2.8l.8,1c.3.3.2.4.7.3a8.49,8.49,0,0,0,2.2-1.5c.4-.3.3-.2.9-.3h.1Z"/><path class="cls-196" d="M144.13,28.3l.9-4.2s-1,2.7-1.1,3.1A2.78,2.78,0,0,0,144.13,28.3Z"/><path class="cls-196" d="M143.73,26.1l1.2-2.5-1.2,1.8A1.38,1.38,0,0,0,143.73,26.1Z"/><path class="cls-196" d="M145.43,31.5l.9,2.2s-.4-1.6-.5-1.8A1.27,1.27,0,0,0,145.43,31.5Z"/><path class="cls-196" d="M145.83,29.3h0Z"/><path class="cls-197" d="M156.63,6.1c5,.8,5.8-2.4,5.9-3.3s-2.1-1.9-5-2.4-5.3-.2-5.5.7S152.13,5.3,156.63,6.1Z"/><ellipse class="cls-198" cx="158.08" cy="1.39" rx="1.21" ry="4.22" transform="translate(129.96 156.95) rotate(-80.26)"/><path class="cls-199" d="M161.43,3.6l-1.7.2a.57.57,0,0,1-1,0l-1.6-.2c-.2.3-.9.2-.9-.2l-1.5-.4c-.3.3-.9,0-.8-.3l-1.3-.8c-.4.3-.5-.2-.4-.7L146.93,33l10.4,1.7h0l5.3-31.8h0C162.43,3.4,162,4.2,161.43,3.6Z"/><ellipse class="cls-200" cx="152.05" cy="33.83" rx="1.6" ry="5.3" transform="translate(93.59 178.21) rotate(-80.5)"/><path class="cls-201" d="M153.23,1.3c-.1.5.9,1.1,2.3,1.5l.3-.7a6.2,6.2,0,0,1,.9-1.4C154.83.4,153.33.7,153.23,1.3Z"/><path class="cls-202" d="M153.83,2.6l-1.2,1.6a15.34,15.34,0,0,1-1.4,2.1L151,7.6a14.64,14.64,0,0,0,1.9-2.4,13.57,13.57,0,0,0,.9-2.6Z"/><path class="cls-203" d="M153.33,7.7l-2.9,4.1h-.1l-.2,1.4c.8-1,2-2.6,3.1-4.2a37.7,37.7,0,0,0,3.1-5.9h0Z"/><path class="cls-204" d="M149.23,18.6a47.38,47.38,0,0,0,3.8-4.8,64,64,0,0,0,4.4-7.1,29,29,0,0,0,1.3-3.1h0L155,9.5a78.16,78.16,0,0,1-4.7,6.6l-.9,1.1Z"/><path class="cls-205" d="M148.33,23.6a56.36,56.36,0,0,0,5.1-5.6c2.1-2.8,8-14.4,8-14.5h0l-5.1,8.3a67.86,67.86,0,0,1-5.9,8l-1.8,1.9Z"/><path class="cls-206" d="M147.93,26.2l-.4,2.4a82.1,82.1,0,0,0,7.2-8.5,94.79,94.79,0,0,0,6.9-11.6,123.63,123.63,0,0,1-8.1,11.7A54.79,54.79,0,0,1,147.93,26.2Z"/><path class="cls-207" d="M147.13,30.8l-.3,2a71,71,0,0,0,5.6-5.6c2.4-2.7,8.1-11.7,8.1-11.7s-3.2,4.4-7.7,9.6A61.33,61.33,0,0,1,147.13,30.8Z"/><path class="cls-208" d="M147.83,34.1l1.1.5c.8-.8,2.5-2.4,4.3-4.4a50.12,50.12,0,0,0,6.2-8.5s-2.5,3.1-6.9,7.8C150.93,31.2,148.73,33.3,147.83,34.1Z"/><path class="cls-209" d="M152.93,33.1l-2.2,2,1.1.2h.3a47.9,47.9,0,0,0,6.4-8Z"/><path class="cls-210" d="M154.33,35.3l-.4.2h1.5a13.27,13.27,0,0,0,2.1-3A42.45,42.45,0,0,1,154.33,35.3Z"/><path class="cls-211" d="M154.93,35.5c-.1.2.7.5,1.3-.2l1-1.2.3-1.6A23.9,23.9,0,0,0,154.93,35.5Z"/><path class="cls-212" d="M157.63,28.4a84,84,0,0,1-6.2,6.9c-.1.1.3.2.4.2h.7c1.8-1.9,3.9-4.1,5.6-6.3l.3-1.8Z"/><path class="cls-213" d="M156.13,26.2a96,96,0,0,1-6.8,7.6l-.7.7c-.1.1.1.3.3.3s.5.1.6,0a97,97,0,0,0,7.3-8l2.3-3,.3-2C158.43,23.2,157.33,24.6,156.13,26.2Z"/><path class="cls-214" d="M154.53,24a96,96,0,0,1-6.8,7.6l-.8.8v.5a.5.5,0,0,0,.2.6,103,103,0,0,0,8.2-8.9,78.6,78.6,0,0,0,4.8-6.7l.4-2.3A76.29,76.29,0,0,1,154.53,24Z"/><path class="cls-215" d="M153,21.9c-1.7,2.1-3.6,4.2-5.3,6l-.3,1.5a92.77,92.77,0,0,0,6.3-7,76.64,76.64,0,0,0,7.5-11.3l.4-2.7A78.73,78.73,0,0,1,153,21.9Z"/><path class="cls-216" d="M161.43,3.6l-.9,1.7a81.26,81.26,0,0,1-9.2,14.4l-3,3.5-.3,1.6c1.3-1.4,2.7-3,4-4.6a82.24,82.24,0,0,0,9.3-14.6l1.1-2.2V2.8h0C162.43,3.4,162.13,3.8,161.43,3.6Z"/><path class="cls-217" d="M149.83,17.5l-.6.8-.3,1.7,1.6-1.9a81.83,81.83,0,0,0,9.1-14.3.52.52,0,0,1-.5.2.61.61,0,0,1-.4-.3A79.83,79.83,0,0,1,149.83,17.5Z"/><path class="cls-218" d="M156.53,3.6l-.4-.3a77,77,0,0,1-6.1,9.6l-.3,1.9A78.1,78.1,0,0,0,157,3.5.64.64,0,0,1,156.53,3.6Z"/><path class="cls-219" d="M151.13,7.2l-.4,2c1.4-2.1,2.7-4.1,3.9-6.3h-.5l-.3-.3C152.93,4.2,152,5.7,151.13,7.2Z"/><path class="cls-220" d="M152.13,1.1l-.3,1.9.7-1.2A.59.59,0,0,1,152.13,1.1Z"/><path class="cls-221" d="M155.13.6c-1.1,0-1.8.3-1.9.7s.5.8,1.5,1.2Z"/><path class="cls-196" d="M155.13,12.7c-.1.7-.6,1.2-1,1.1s-.6-.7-.5-1.3.6-1.2,1-1.1S155.23,12,155.13,12.7Z"/><path class="cls-222" d="M154.93,12.7c-.1.6-.5,1-.8.9s-.5-.6-.4-1.2.5-1,.8-.9A.94.94,0,0,1,154.93,12.7Z"/><path class="cls-196" d="M154.73,12.8c-.1.5-.4.8-.7.8s-.4-.5-.3-1,.4-.8.7-.8S154.83,12.3,154.73,12.8Z"/><path class="cls-222" d="M154.23,12.9c-.1.3-.2.4-.3.4s-.2-.2-.2-.5.2-.4.3-.4A.36.36,0,0,1,154.23,12.9Z"/><path class="cls-196" d="M158.83,13.2c-.2.6-.6,1-1,.9s-.5-.7-.3-1.2.6-1,1-.9S159,12.6,158.83,13.2Z"/><path class="cls-222" d="M158.73,13.2c-.2.5-.5.9-.8.8s-.4-.6-.3-1.1.5-.9.8-.8S158.83,12.6,158.73,13.2Z"/><path class="cls-196" d="M158.43,13.2a.84.84,0,0,1-.7.7c-.3,0-.3-.5-.2-.9a.84.84,0,0,1,.7-.7C158.53,12.3,158.53,12.8,158.43,13.2Z"/><path class="cls-222" d="M158,13.3c-.1.2-.2.4-.4.4s-.2-.2-.1-.5.2-.4.4-.4S158.13,13.1,158,13.3Z"/><path class="cls-222" d="M155.93,18a4,4,0,0,0,1.9-.5s-1.8,3.1-3.3,3.2-3-3.6-3-3.6A11.65,11.65,0,0,0,155.93,18Z"/><path class="cls-196" d="M154.53,21c-1.9,0-3.1-3.6-3.2-3.7l-.2-.5.5.2a12.05,12.05,0,0,0,3.9.8h.4a4,4,0,0,0,1.8-.4l.9-.7-.6,1c-.1.1-1.9,3.2-3.5,3.3ZM152,17.6c.5,1.1,1.4,2.9,2.5,2.9h.1c.9-.1,2-1.4,2.7-2.4l-1.3.2h-.5A11.59,11.59,0,0,1,152,17.6Z"/><path class="cls-196" d="M155.53,15.1h1l-.2.2-.2.2h-.3l.3-.3V15h-.8Z"/><path class="cls-196" d="M157.13,17.8l-.6,1.3c-.5.6-2.4.8-3.9.2,1.4,2,2.5,1.4,2.5,1.4a8.79,8.79,0,0,0,2.2-2.1,3.47,3.47,0,0,0,.5-.8Z"/><path class="cls-194" d="M18.23,36.7,16,21.1l2.9-.4a7.88,7.88,0,1,1,2.2,15.6Zm.5-13.6L20.33,34h.5a5.51,5.51,0,0,0,4.7-6.2h0a5.5,5.5,0,0,0-6.2-4.7h-.6Z"/><path d="M81.08,23.15l-1.7.2h-.2v3.2h-2.3v-15h2.4a5.9,5.9,0,0,1,5.9,5.9h0a5.72,5.72,0,0,1-1.7,4.2l-1,.81m-3.34-1.31h.2a3.7,3.7,0,1,0,0-7.4h-.2Z"/></g></g></svg>